<svg width="24px" height="24px" viewBox="0 0 24 24" version="1.1" xmlns="http://www.w3.org/2000/svg" xmlns:xlink="http://www.w3.org/1999/xlink">
    <g stroke="none" stroke-width="1" fill="currentColor" fill-rule="evenodd">
        <path d="M19,3 C20.1045695,3 21,3.8954305 21,5 L21,19 C21,20.1045695 20.1045695,21 19,21 L5,21 C3.8954305,21 3,20.1045695 3,19 L3,5 C3,3.8954305 3.8954305,3 5,3 L19,3 Z M19,4.5 L5,4.5 C4.75454011,4.5 4.55039163,4.67687516 4.50805567,4.91012437 L4.5,5 L4.5,19 C4.5,19.2454599 4.67687516,19.4496084 4.91012437,19.4919443 L5,19.5 L19,19.5 C19.2454599,19.5 19.4496084,19.3231248 19.4919443,19.0898756 L19.5,19 L19.5,5 C19.5,4.75454011 19.3231248,4.55039163 19.0898756,4.50805567 L19,4.5 Z" fill-rule="nonzero"></path>
    </g>
</svg>
