<?xml version="1.0" encoding="UTF-8"?>
<svg width="24px" height="24px" viewBox="0 0 24 24" version="1.1" xmlns="http://www.w3.org/2000/svg" xmlns:xlink="http://www.w3.org/1999/xlink">
    <title>选中</title>
    <g id="选中" stroke="none" stroke-width="1" fill="currentColor" fill-rule="evenodd">
        <rect id="矩形" x="3" y="3" width="18" height="18" rx="2"></rect>
        <g id="成功选中" transform="translate(7.000000, 8.000000)" fill="#FFFFFF" fill-rule="nonzero">
            <path d="M9.7485457,0.206613759 C9.4685526,-0.0712290707 9.0156949,-0.0683876907 8.7385432,0.212334969 L3.53140897,5.47660435 L1.22641924,3.10802875 C0.950688253,2.82446468 0.498560083,2.81947303 0.216416743,3.09374495 C-0.0664561373,3.36874635 -0.0728684873,3.82160405 0.202132943,4.10374745 L3.01500372,6.99444955 C3.01642441,6.99659975 3.01930421,6.99659975 3.02072493,6.99875005 C3.02214562,7.00017075 3.02287517,7.00305055 3.02429587,7.00447125 C3.06929749,7.04874325 3.12501198,7.07589015 3.17788506,7.10591685 C3.2057231,7.12093025 3.22787834,7.14592685 3.25644593,7.15733085 C3.34287825,7.19304035 3.43503176,7.21089505 3.52645573,7.21089505 C3.61718854,7.21089505 3.70788296,7.19304035 3.79358573,7.15875155 C3.82142377,7.14730915 3.84288785,7.12446275 3.8693052,7.11017895 C3.92286941,7.08019065 3.9785839,7.05373495 4.02431508,7.00873325 C4.02573578,7.00731265 4.02646533,7.00443285 4.02861557,7.00301205 C4.03003627,7.00086185 4.03218651,7.00017065 4.03433678,6.99871155 L9.7536141,1.21726901 C10.0313802,0.935893629 10.0285388,0.483765459 9.7485457,0.206613759 Z" id="路径"></path>
        </g>
    </g>
</svg>
