<svg width="24px" height="24px" viewBox="0 0 24 24" version="1.1" xmlns="http://www.w3.org/2000/svg" xmlns:xlink="http://www.w3.org/1999/xlink">
    <g stroke="none" stroke-width="1" fill="none" fill-rule="evenodd" fill-opacity="0.85">
        <path d="M12,2 C17.5142742,2 22,6.4857258 22,12 C22,17.5142742 17.5142742,22 12,22 C6.4857258,22 2,17.5142742 2,12 C2,6.4857258 6.4857258,2 12,2 Z M12,3.43498377 C7.2771325,3.43498377 3.43498377,7.27713248 3.43498377,12 C3.43498377,16.722138 7.27713248,20.5650162 12,20.5650162 C16.722138,20.5650162 20.5650162,16.7221764 20.5650162,12 C20.5650162,7.2771325 16.722138,3.43498377 12,3.43498377 Z M8.93307737,7.91150692 L12.003786,10.9915077 L15.0852075,7.94295428 C15.3652005,7.66511145 15.8180583,7.66795283 16.09521,7.94867549 C16.3730528,8.22939812 16.3702114,8.68152629 16.0894888,8.95867799 L13.0116766,12.0029309 L16.0788143,15.0800903 C16.3573867,15.3600833 16.3566571,15.8115204 16.0773936,16.0900928 C15.9381266,16.2286686 15.7559698,16.2986669 15.5731219,16.2986669 C15.3895444,16.2986669 15.2066965,16.2286686 15.0673911,16.0886721 L11.9959529,13.0079417 L8.91453147,16.0565335 C8.77526449,16.1936887 8.59379886,16.2629574 8.41237163,16.2629574 C8.22810299,16.2629574 8.04452554,16.1922296 7.90452897,16.0508123 C7.62737728,15.7700897 7.62952752,15.3186527 7.91025018,15.0408098 L10.9881007,11.9965185 L7.92165417,8.92008872 C7.64308179,8.64078678 7.64381134,8.18865861 7.92307487,7.91008622 C8.20237681,7.63078428 8.65377542,7.63224339 8.93307737,7.91150692 Z" fill="currentColor" fill-rule="nonzero" transform="translate(12.000000, 12.000000) rotate(180.000000) translate(-12.000000, -12.000000) "></path>
    </g>
</svg>
