<?xml version="1.0" encoding="UTF-8"?>
<svg width="24px" height="24px" viewBox="0 0 24 24" version="1.1" xmlns="http://www.w3.org/2000/svg" xmlns:xlink="http://www.w3.org/1999/xlink">
    <g id="评分" stroke="none" stroke-width="1" fill="none" fill-rule="evenodd" stroke-opacity="0.85">
        <path d="M11.9197133,4.02279412 C12.1599446,4.0597 12.1998515,4.09960688 12.224184,4.14891003 L12.224184,4.14891003 L14.0337036,7.81539726 C14.2886122,8.33189833 14.7813519,8.68989474 15.3513447,8.77271954 L15.3513447,8.77271954 L19.3975536,9.3606681 C19.4658717,9.37059531 19.5236984,9.40727409 19.5619637,9.45855059 C19.600229,9.5098271 19.618933,9.57570133 19.6090058,9.64401944 C19.6010996,9.69842869 19.5754779,9.7487143 19.5361069,9.78709145 L19.5361069,9.78709145 L16.6082427,12.6410537 C16.195792,13.0430938 16.0075822,13.6223441 16.1049486,14.1900337 L16.1049486,14.1900337 L16.7961236,18.2198931 C16.8077937,18.2879352 16.7907795,18.354266 16.7538373,18.4065038 C16.7168951,18.4587416 16.6600248,18.4968864 16.5919828,18.5085565 C16.5377934,18.5178507 16.4820513,18.509022 16.4333862,18.4834373 L16.4333862,18.4834373 L12.814347,16.5807957 C12.3045299,16.3127691 11.6954701,16.3127691 11.185653,16.5807957 L11.185653,16.5807957 L7.56661378,18.4834373 C7.50550821,18.5155624 7.43716623,18.5198783 7.37606936,18.5008865 C7.3149725,18.4818947 7.26112075,18.4395953 7.22899565,18.3784897 C7.20341088,18.3298246 7.19458221,18.2740826 7.20387642,18.2198931 L7.20387642,18.2198931 L7.89505141,14.1900337 C7.99241781,13.6223441 7.80420796,13.0430938 7.39175731,12.6410537 L7.39175731,12.6410537 L4.46389306,9.78709145 C4.41445761,9.7389038 4.38923412,9.67524039 4.3884164,9.61126504 C4.38759868,9.54728968 4.41118674,9.48300238 4.45937439,9.43356693 C4.49775154,9.39419603 4.54803714,9.36857423 4.6024464,9.3606681 L4.6024464,9.3606681 L8.64865528,8.77271954 C9.21864806,8.68989474 9.71138784,8.33189833 9.96629636,7.81539726 L9.96629636,7.81539726 L11.775816,4.14891003 C11.8063688,4.08700333 11.8591218,4.04334129 11.9197133,4.02279412 Z" id="星形" stroke="currentColor" stroke-width="1.5"></path>
    </g>
</svg>
