<?xml version="1.0" encoding="UTF-8"?>
<svg width="24px" height="24px" viewBox="0 0 24 24" version="1.1" xmlns="http://www.w3.org/2000/svg" xmlns:xlink="http://www.w3.org/1999/xlink">
    <g id="评分1" stroke="none" stroke-width="1" fill="none" fill-rule="evenodd" fill-opacity="0.85">
        <path d="M11.5346589,17.2446443 L7.91561963,19.1472858 C7.42677504,19.4042866 6.82214789,19.2163401 6.56514708,18.7274955 C6.46280801,18.5328351 6.42749334,18.309867 6.46467018,18.0931094 L7.15584517,14.0632499 C7.21148311,13.7388559 7.10393462,13.4078557 6.86824854,13.1781185 L3.94038429,10.3241562 C3.54490071,9.93865501 3.5368084,9.30554174 3.92230962,8.91005817 C4.07581822,8.75257453 4.27696063,8.65008735 4.49459766,8.61846284 L8.54080654,8.03051428 C8.8665167,7.98318582 9.14808229,7.77861645 9.2937443,7.48347297 L11.1032639,3.81698575 C11.3476862,3.32173209 11.9473121,3.11839309 12.4425657,3.36281539 C12.6397783,3.46014562 12.7994058,3.61977315 12.8967361,3.81698575 L14.7062557,7.48347297 C14.8519177,7.77861645 15.1334833,7.98318582 15.4591935,8.03051428 L19.5054023,8.61846284 C20.0519472,8.69788046 20.4306287,9.20532331 20.351211,9.75186817 C20.3195865,9.96950521 20.2170993,10.1706476 20.0596157,10.3241562 L17.1317515,13.1781185 C16.8960654,13.4078557 16.7885169,13.7388559 16.8441548,14.0632499 L17.5353298,18.0931094 C17.6286908,18.6374458 17.263103,19.1544017 16.7187666,19.2477627 C16.5020089,19.2849396 16.2790408,19.2496249 16.0843804,19.1472858 L12.4653411,17.2446443 C12.1740171,17.0914862 11.8259829,17.0914862 11.5346589,17.2446443 Z" id="星形" fill="currentColor"></path>
    </g>
</svg>
