<?xml version="1.0" encoding="UTF-8"?>
<svg width="24px" height="24px" viewBox="0 0 24 24" version="1.1" xmlns="http://www.w3.org/2000/svg" xmlns:xlink="http://www.w3.org/1999/xlink">
    <title>成功选中</title>
    <g id="成功选中" stroke="none" stroke-width="1" fill="currentColor" fill-rule="evenodd">
        <g id="成功" transform="translate(2.000000, 2.000000)" fill-rule="nonzero">
            <path d="M10,20 C4.4857258,20 0,15.5142742 0,10 C0,4.4857258 4.4857258,0 10,0 C15.5142742,0 20,4.4857258 20,10 C20,15.5142742 15.5142742,20 10,20 Z" id="形状" fill-opacity="0.85"></path>
            <path d="M14.798587,7.34786031 C14.5185939,7.07001748 14.0657362,7.07285886 13.7885845,7.35358152 L8.58145027,12.6178509 L6.27646054,10.2492753 C6.00072955,9.96571123 5.54860138,9.96071958 5.26645804,10.2349915 C4.98358516,10.5099929 4.97717281,10.9628506 5.25217424,11.244994 L8.06504502,14.1356961 C8.06646571,14.1378463 8.06934551,14.1378463 8.07076623,14.1399966 C8.07218692,14.1414173 8.07291647,14.1442971 8.07433717,14.1457178 C8.11933879,14.1899898 8.17505328,14.2171367 8.22792636,14.2471634 C8.2557644,14.2621768 8.27791964,14.2871734 8.30648723,14.2985774 C8.39291955,14.3342869 8.48507306,14.3521416 8.57649703,14.3521416 C8.66722984,14.3521416 8.75792426,14.3342869 8.84362703,14.2999981 C8.87146507,14.2885557 8.89292915,14.2657093 8.9193465,14.2514255 C8.97291071,14.2214372 9.0286252,14.1949815 9.07435638,14.1499798 C9.07577708,14.1485592 9.07650663,14.1456794 9.07865687,14.1442586 C9.08007757,14.1421084 9.08222781,14.1414172 9.08437808,14.1399581 L14.8036554,8.35851556 C15.0814215,8.07714018 15.0785801,7.62501201 14.798587,7.34786031 Z" id="路径" fill="#FFFFFF"></path>
        </g>
    </g>
</svg>
