<svg width="24px" height="24px" viewBox="0 0 24 24" version="1.1" xmlns="http://www.w3.org/2000/svg" xmlns:xlink="http://www.w3.org/1999/xlink">
    <g stroke="none" stroke-width="1" fill="none" fill-rule="evenodd" fill-opacity="0.85">
        <g transform="translate(2.000000, 2.000000)" fill="currentColor" fill-rule="nonzero">
            <path d="M10,0 C4.48557942,0 0,4.48557939 0,10 C0,15.5144206 4.48557942,20 10,20 C15.5144206,20 20,15.5144206 20,10 C20,4.48557942 15.5144206,0 10,0 Z M10.7174813,15.0222538 C10.7174813,15.4190032 10.396788,15.7397351 10,15.7397351 C9.60321195,15.7397351 9.28251865,15.4190418 9.28251865,15.0222538 L9.28251865,8.56507586 C9.28251865,8.16832638 9.60321195,7.84759451 10,7.84759451 C10.3967495,7.84759451 10.7174813,8.16828782 10.7174813,8.56507586 L10.7174813,15.0222538 Z M10,6.41270894 C9.40593639,6.41270894 8.92379726,5.92983702 8.92379726,5.3365062 C8.92379726,4.74174837 9.40593639,4.26030346 10,4.26030346 C10.5940636,4.26030346 11.0762027,4.74170981 11.0762027,5.3365062 C11.0762027,5.92983702 10.5940636,6.41270894 10,6.41270894 Z"></path>
        </g>
    </g>
</svg>
