<?xml version="1.0" standalone="no"?><!DOCTYPE svg PUBLIC "-//W3C//DTD SVG 1.1//EN" "http://www.w3.org/Graphics/SVG/1.1/DTD/svg11.dtd"><svg t="1678013837998" class="icon" viewBox="0 0 1049 1024" version="1.1" xmlns="http://www.w3.org/2000/svg" p-id="3005" xmlns:xlink="http://www.w3.org/1999/xlink" width="204.8828125" height="200"><path d="M523.40761602 62C268.25837099 62 62 268.25837099 62 523.40761602c0 203.96661152 132.1581419 376.61250762 315.49891641 437.72609882 22.91759648 4.58351895 31.32071543-9.93095859 31.32071543-22.15367666 0-10.69487842-0.76391982-47.36303349-0.76391983-85.55902822-128.3385419 27.50111631-155.07573838-55.00223261-155.07573837-55.00223262-20.62583701-53.47439297-51.18263262-67.22495068-51.18263351-67.22495068-42.01559385-28.26503613 3.0556793-28.26503613 3.05568018-28.26503614 46.59911367 3.0556793 71.0445498 47.36303349 71.0445498 47.36303351 41.25167402 70.28062998 107.71270488 50.41871279 134.44990137 38.19599472 3.81959912-29.79287578 16.04231807-50.41871279 29.02895596-61.87751104-102.36526612-10.69487842-210.07797099-50.41871279-210.07797099-227.6481287 0-50.41871279 18.33407753-91.67038682 47.36303349-123.75502295-4.58351895-11.45879825-20.62583701-58.82183174 4.58351983-122.22718242 0 0 38.95991455-12.22271807 126.81070224 47.36303349 36.66815508-9.93095859 76.39198945-15.27839824 115.35190401-15.27839825s78.68374893 5.34743964 115.351904 15.27839825C726.61030771 240.75725469 765.57022227 252.97997364 765.57022227 252.97997364c25.20935683 63.40535156 9.16703877 110.76838418 4.58351895 122.22718242 29.79287578 32.08463526 47.36303349 73.33631016 47.36303349 123.75502295 0 177.22941504-107.71270488 216.18932959-210.84189083 227.6481287 16.80623789 14.51447842 31.32071543 42.01559385 31.32071631 85.55902823 0 61.87751104-0.76391982 111.53230489-0.7639207 126.81070224 0 12.22271807 8.40311894 26.73719648 31.32071631 22.15367666 183.34077451-61.11359122 315.49891641-233.7594873 315.49891553-437.72609882C984.81523115 268.25837099 777.79294033 62 523.40761602 62z" fill="#191717" p-id="3006"></path><path d="M236.93765557 724.31854824c-0.76391982 2.29175948-4.58351895 3.0556793-7.63919912 1.52783965s-5.34743964-4.58351895-3.81959913-6.8752793c0.76391982-2.29175948 4.58351895-3.0556793 7.63919913-1.52783965s4.58351895 4.58351895 3.81959912 6.8752793z m-6.11135948-3.8196M255.2717331 744.94438526c-2.29175948 2.29175948-6.8752793 0.76391982-9.16703876-2.29176036-3.0556793-3.0556793-3.81959912-7.63919912-1.52783965-9.93095859 2.29175948-2.29175948 6.11135948-0.76391982 9.16703877 2.29176035 3.0556793 3.81959912 3.81959912 8.40311894 1.52783964 9.9309586z m-4.58351894-4.58351983M273.60581065 771.68158086c-3.0556793 2.29175948-7.63919912 0-9.9309586-3.81959912-3.0556793-3.81959912-3.0556793-9.16703877 0-10.69487842 3.0556793-2.29175948 7.63919912 0 9.9309586 3.81959912 3.0556793 3.81959912 3.0556793 8.40311894 0 10.69487842z m0 0M298.81516661 797.65485752c-2.29175948 3.0556793-7.63919912 2.29175948-12.22271807-1.52783965-3.81959912-3.81959912-5.34743964-9.16703877-2.29175948-11.45879824 2.29175948-3.0556793 7.63919912-2.29175948 12.22271807 1.52783965 3.81959912 3.0556793 4.58351895 8.40311894 2.29175948 11.45879824z m0 0M333.19156221 812.16933594c-0.76391982 3.81959912-6.11135948 5.34743964-11.45879825 3.81959912-5.34743964-1.52783965-8.40311894-6.11135948-7.63919912-9.16703877 0.76391982-3.81959912 6.11135948-5.34743964 11.45879824-3.81959912 5.34743964 1.52783965 8.40311894 5.34743964 7.63919913 9.16703877z m0 0M370.62363711 815.22501523c0 3.81959912-4.58351895 6.8752793-9.93095859 6.8752793-5.34743964 0-9.93095859-3.0556793-9.9309586-6.8752793s4.58351895-6.8752793 9.9309586-6.87527929c5.34743964 0 9.93095859 3.0556793 9.93095859 6.87527929z m0 0M405.76395254 809.11365576c0.76391982 3.81959912-3.0556793 7.63919912-8.40311895 8.40311895-5.34743964 0.76391982-9.93095859-1.52783965-10.69487841-5.34743877-0.76391982-3.81959912 3.0556793-7.63919912 8.40311806-8.40311895 5.34743964-0.76391982 9.93095859 1.52783965 10.69487929 5.34743877z m-1e-8 0" fill="#191717" p-id="3007"></path></svg>