<svg width="8px" height="13px" viewBox="0 0 8 13" version="1.1" xmlns="http://www.w3.org/2000/svg" xmlns:xlink="http://www.w3.org/1999/xlink">
    <g id="页面-1" stroke="none" stroke-width="1" fill="currentColor" fill-rule="evenodd" fill-opacity="0.85">
      <path d="M6.90809753,6.33592994 C6.9161072,6.32042127 6.92908932,6.30743914 6.93610451,6.2914198 C7.07361292,6.00540986 7.02859207,5.65543002 6.78510331,5.42540717 L1.26560325,0.20492605 C0.964595324,-0.0795787157 0.490116074,-0.0660859032 0.20510062,0.234438206 C-0.0794041452,0.535446128 -0.0663951452,1.00992538 0.234612777,1.29494083 L5.18711917,5.97992941 L0.254099402,10.7344248 C-0.0438981764,11.021913 -0.0529023483,11.4964191 0.234612777,11.7949274 C0.381609152,11.9479176 0.578114995,12.0244395 0.774620839,12.0244395 C0.962122527,12.0244395 1.1496242,11.954449 1.2951154,11.8144409 L6.76462218,6.54294513 C6.77513153,6.53243578 6.77910948,6.51794849 6.78961882,6.50695535 C6.7976285,6.49945636 6.80612198,6.49394635 6.81410478,6.48596355 C6.85659907,6.44142652 6.87909604,6.38691772 6.90809753,6.33592994 Z" id="路径"></path>
    </g>
</svg>
