<svg width="15px" height="15px" viewBox="0 0 15 15" version="1.1" xmlns="http://www.w3.org/2000/svg"
     xmlns:xlink="http://www.w3.org/1999/xlink">
  <g id="页面-1" stroke="none" stroke-width="1" fill="currentColor" fill-rule="evenodd">
    <path
      d="M7,0 C3.14049188,0 0,3.14000806 0,7 C0,10.8599919 3.14000806,14 7,14 C10.8595081,14 14,10.8599919 14,7 C14,3.14000806 10.8599919,0 7,0 Z M9.8555033,9.15600053 C10.050504,9.35199569 10.0499933,9.66800161 9.85450881,9.86300228 C9.75702192,9.96000537 9.62951217,10.0090042 9.50151863,10.0090042 C9.37301439,10.0090042 9.24502084,9.96000536 9.14750706,9.86200778 L6.99750034,7.70549656 L4.84050531,9.83951081 C4.74301842,9.93551941 4.61599248,9.98400752 4.48899342,9.98400752 C4.36000538,9.98400752 4.23150116,9.93449805 4.13350356,9.83550597 C3.93949738,9.63900012 3.94100255,9.3229942 4.13750841,9.12850422 L6.29200377,6.99750033 L4.1454912,4.84399945 C3.95049053,4.64848809 3.95100122,4.33199837 4.14648569,4.1369977 C4.34199705,3.94148634 4.65797608,3.94250772 4.85348744,4.13799219 L7.00298347,6.29399272 L9.1599785,4.16000534 C9.35597366,3.96551536 9.67297406,3.96750433 9.86698025,4.16401019 C10.0614702,4.36051603 10.0594813,4.67700575 9.86297541,4.87101194 L7.70850692,7.00198898 L9.8555033,9.15600053 Z"
      id="形状"></path>
  </g>
</svg>
