<?xml version="1.0" encoding="UTF-8"?>
<svg width="24px" height="24px" viewBox="0 0 24 24" version="1.1" xmlns="http://www.w3.org/2000/svg" xmlns:xlink="http://www.w3.org/1999/xlink">
    <g id="加载" stroke="none" stroke-width="1" fill="currentColor" fill-rule="evenodd" fill-opacity="0.85">
        <path d="M2.7897318,11.462393 C3.20394536,11.462393 3.5397318,11.7981794 3.5397318,12.212393 C3.5397318,16.7687421 7.23338261,20.462393 11.7897318,20.462393 C12.2039454,20.462393 12.5397318,20.7981794 12.5397318,21.212393 C12.5397318,21.6266065 12.2039454,21.962393 11.7897318,21.962393 C6.40495549,21.962393 2.0397318,17.5971693 2.0397318,12.212393 C2.0397318,11.7981794 2.37551823,11.462393 2.7897318,11.462393 Z M12.2142413,2.10083156 C17.5990176,2.10083156 21.9642413,6.46605525 21.9642413,11.8508316 C21.9642413,12.2650451 21.6284548,12.6008316 21.2142413,12.6008316 C20.8000277,12.6008316 20.4642413,12.2650451 20.4642413,11.8508316 C20.4642413,7.29448238 16.7705905,3.60083156 12.2142413,3.60083156 C11.8000277,3.60083156 11.4642413,3.26504513 11.4642413,2.85083156 C11.4642413,2.436618 11.8000277,2.10083156 12.2142413,2.10083156 Z" id="形状" fill="#000000" fill-rule="nonzero"></path>
    </g>
</svg>
