<?xml version="1.0" encoding="UTF-8"?>
<svg width="14px" height="14px" viewBox="0 0 14 14" version="1.1" xmlns="http://www.w3.org/2000/svg" xmlns:xlink="http://www.w3.org/1999/xlink">
  <g id="页面-1" stroke="none" stroke-width="1" fill="currentColor" fill-rule="evenodd" fill-opacity="0.85">
    <path d="M7.50001344,10.5000134 C7.50001344,10.7765085 7.27652197,11.0000269 7,11.0000269 C6.72347803,11.0000269 6.49998656,10.7765354 6.49998656,10.5000134 L6.49998656,6 C6.49998656,5.72350491 6.72347803,5.49998656 7,5.49998656 C7.27649509,5.49998656 7.50001344,5.72347803 7.50001344,6 L7.50001344,10.5000134 Z M7,0 C10.8599919,0 14,3.14000806 14,7 C14,10.8599919 10.8599919,14 7,14 C3.14000806,14 0,10.8599919 0,7 C0,3.14000806 3.14000806,0 7,0 Z M7,1.00448864 C3.69399275,1.00448864 1.00448864,3.69399273 1.00448864,7 C1.00448864,10.3054966 3.69399273,12.9955114 7,12.9955114 C10.3054966,12.9955114 12.9955114,10.3055235 12.9955114,7 C12.9955114,3.69399275 10.3054966,1.00448864 7,1.00448864 Z M7,3 C7.4140035,3 7.75000672,3.33549255 7.75000672,3.75000672 C7.75000672,4.16349953 7.4140035,4.50001344 7,4.50001344 C6.5859965,4.50001344 6.24999328,4.16349953 6.24999328,3.75000672 C6.24999328,3.33551942 6.5859965,3 7,3 Z" id="提示" fill-rule="nonzero"></path>
  </g>
</svg>
