<svg viewBox="0 0 24 24" version="1.1" xmlns="http://www.w3.org/2000/svg">
    <g stroke="none" stroke-width="1" fill-rule="evenodd">
        <g transform="translate(2.000000, 3.000000)" fill-rule="nonzero">
            <path d="M6.7236068,0.552786405 C6.89299881,0.214002376 7.23926193,2.91623903e-16 7.61803399,0 L12.381966,0 C12.7607381,2.6683787e-16 13.1070012,0.214002376 13.2763932,0.552786405 L14.5,3 L18.5,3 C19.3284271,3 20,3.67157288 20,4.5 L20,16.5 C20,17.3284271 19.3284271,18 18.5,18 L1.5,18 C0.671572875,18 3.23497668e-16,17.3284271 0,16.5 L0,4.5 C-1.01453063e-16,3.67157288 0.671572875,3 1.5,3 L5.5,3 L6.7236068,0.552786405 Z" fill="currentColor"></path>
            <path d="M10,14.5 C12.20915,14.5 14,12.70915 14,10.5 C14,8.29085 12.20915,6.5 10,6.5 C7.79085,6.5 6,8.29085 6,10.5 C6,12.70915 7.79085,14.5 10,14.5 Z" fill="#FFFFFF"></path>
            <path d="M10,13 C11.3807187,13 12.5,11.8807187 12.5,10.5 C12.5,9.11928125 11.3807187,8 10,8 C8.61928125,8 7.5,9.11928125 7.5,10.5 C7.5,11.8807187 8.61928125,13 10,13 Z" fill="currentColor"></path>
        </g>
    </g>
</svg>
