<svg viewBox="0 0 24 24" version="1.1" xmlns="http://www.w3.org/2000/svg">
    <g stroke="none" stroke-width="1" fill="currentColor" fill-rule="evenodd" fill-opacity="0.85">
        <g transform="translate(1.969010, 1.845995)" fill="currentColor" fill-rule="nonzero">
            <path d="M10,0 C4.48641696,0 0,4.4857258 0,10 C0,15.5142742 4.4857258,20 10,20 C15.513583,20 20,15.5142742 20,10 C20,4.4857258 15.5142742,0 10,0 Z M14.0792904,13.0800008 C14.3578628,13.3599938 14.3571333,13.8114309 14.0778697,14.0900033 C13.9386027,14.2285791 13.756446,14.2985774 13.573598,14.2985774 C13.3900206,14.2985774 13.2071726,14.2285791 13.0678672,14.0885825 L9.99642906,11.0078522 L6.91500759,14.056444 C6.7757406,14.1935992 6.59427498,14.2628679 6.41284775,14.2628679 C6.22857911,14.2628679 6.04500165,14.1921401 5.90500509,14.0507228 C5.62785339,13.7700002 5.63000364,13.3185631 5.91072629,13.0407203 L8.98857681,9.99642904 L5.92213029,6.91999922 C5.6435579,6.64069728 5.64428746,6.18856911 5.92355098,5.90999672 C6.20285292,5.63069478 6.65425154,5.63215388 6.93355348,5.91141741 L10.0042621,8.99141817 L13.0856836,5.94286478 C13.3656767,5.66502194 13.8185344,5.66786333 14.0956861,5.94858598 C14.3735289,6.22930862 14.3706875,6.68143679 14.0899649,6.95858848 L11.0121527,10.0028414 L14.0792904,13.0800008 Z"></path>
        </g>
    </g>
</svg>
