<svg viewBox="0 0 24 24" xmlns="http://www.w3.org/2000/svg">
    <path d="M12 22C17.5228 22 22 17.5228 22 12C22 6.47717 17.5228 2 12 2C6.47717 2 2 6.47717 2 12C2 17.5228 6.47717 22 12 22Z" fill="currentColor"/>
    <path fill-rule="evenodd" clip-rule="evenodd" d="M1.25 12C1.25 6.06295 6.06295 1.25 12 1.25C17.937 1.25 22.75 6.06295 22.75 12C22.75 17.937 17.937 22.75 12 22.75C6.06295 22.75 1.25 17.937 1.25 12ZM12 2.75C6.89138 2.75 2.75 6.89138 2.75 12C2.75 17.1086 6.89138 21.25 12 21.25C17.1086 21.25 21.25 17.1086 21.25 12C21.25 6.89138 17.1086 2.75 12 2.75Z" fill="currentColor"/>
    <path fill-rule="evenodd" clip-rule="evenodd" d="M9.59165 22.736C9.4949 22.6112 9.4949 21.4989 9.59165 19.3992C8.5557 19.435 7.9012 19.3631 7.62815 19.1836C7.2185 18.9142 6.80845 18.0836 6.44455 17.4982C6.0807 16.9128 5.27315 16.8202 4.94702 16.6894C4.62091 16.5585 4.53904 16.025 5.84565 16.4285C7.1522 16.8319 7.21595 17.9306 7.62815 18.1875C8.0403 18.4444 9.02575 18.332 9.4724 18.1262C9.9191 17.9204 9.8862 17.1541 9.96585 16.8506C10.0665 16.5672 9.71165 16.5044 9.70385 16.5021C9.26775 16.5021 6.97695 16.0039 6.34775 13.7855C5.7185 11.5672 6.52905 10.1173 6.96145 9.49399C7.24975 9.07844 7.22425 8.19284 6.88495 6.83709C8.11675 6.67969 9.06735 7.06739 9.7367 8.00029C9.73735 8.00564 10.6142 7.47884 12.0001 7.47884C13.386 7.47884 13.8776 7.90794 14.2571 8.00029C14.6365 8.09264 14.94 6.36729 17.2834 6.83709C16.7941 7.79869 16.3844 9.00029 16.6971 9.49399C17.0099 9.98769 18.2372 11.5576 17.4833 13.7855C16.9807 15.2709 15.9926 16.1764 14.5192 16.5021C14.3502 16.556 14.2657 16.643 14.2657 16.763C14.2657 16.943 14.4942 16.9627 14.8232 17.8061C15.0426 18.3683 15.0585 19.9742 14.8708 22.6237C14.3953 22.7448 14.0254 22.826 13.761 22.8676C13.2923 22.9412 12.7834 22.9825 12.2834 22.9985C11.7834 23.0144 11.6098 23.0126 10.9185 22.9483C10.4577 22.9054 10.0154 22.8346 9.59165 22.736Z" fill="white"/>
</svg>
