<svg viewBox="0 0 24 24" fill="none" xmlns="http://www.w3.org/2000/svg">
  <path d="M12 22C14.7614 22 17.2614 20.8807 19.0711 19.0711C20.8807 17.2614 22 14.7614 22 12C22 9.2386 20.8807 6.7386 19.0711 4.92893C17.2614 3.11929 14.7614 2 12 2C9.2386 2 6.7386 3.11929 4.92893 4.92893C3.11929 6.7386 2 9.2386 2 12C2 14.7614 3.11929 17.2614 4.92893 19.0711C6.7386 20.8807 9.2386 22 12 22Z" fill="currentColor"/>
  <path fill-rule="evenodd" clip-rule="evenodd" d="M4.3986 4.3986C6.34317 2.45406 9.0317 1.25 12 1.25C14.9683 1.25 17.6568 2.45406 19.6014 4.3986L19.0711 4.92893L19.6014 4.3986C21.5459 6.34317 22.75 9.0317 22.75 12C22.75 14.9683 21.5459 17.6568 19.6014 19.6014C17.6568 21.5459 14.9683 22.75 12 22.75C9.0317 22.75 6.34317 21.5459 4.3986 19.6014L4.92893 19.0711L4.3986 19.6014C2.45406 17.6568 1.25 14.9683 1.25 12C1.25 9.0317 2.45406 6.34317 4.3986 4.3986L4.3986 4.3986ZM12 2.75C9.4455 2.75 7.13403 3.78452 5.45926 5.45926C3.78451 7.13404 2.75 9.4455 2.75 12C2.75 14.5545 3.78452 16.866 5.45926 18.5407C7.13403 20.2155 9.4455 21.25 12 21.25C14.5545 21.25 16.866 20.2155 18.5407 18.5407C20.2155 16.866 21.25 14.5545 21.25 12C21.25 9.4455 20.2155 7.13403 18.5407 5.45926C16.866 3.78452 14.5545 2.75 12 2.75Z" fill="currentColor"/>
  <path fill-rule="evenodd" clip-rule="evenodd" d="M8.25 9.3125C8.25 7.24144 9.92894 5.5625 12 5.5625C14.0711 5.5625 15.75 7.24144 15.75 9.3125C15.75 10.9549 14.6946 12.3488 13.2273 12.8569C13.0697 12.9114 12.9366 12.9998 12.8517 13.0938C12.7708 13.1833 12.75 13.2566 12.75 13.3125V14.3125C12.75 14.7267 12.4142 15.0625 12 15.0625C11.5858 15.0625 11.25 14.7267 11.25 14.3125V13.3125C11.25 12.31 12.0578 11.6744 12.7365 11.4394C13.6185 11.1341 14.25 10.2961 14.25 9.3125C14.25 8.06986 13.2426 7.0625 12 7.0625C10.7574 7.0625 9.75 8.06986 9.75 9.3125C9.75 9.72671 9.41421 10.0625 9 10.0625C8.58579 10.0625 8.25 9.72671 8.25 9.3125Z" fill="white"/>
  <path fill-rule="evenodd" clip-rule="evenodd" d="M12 19.3125C12.8284 19.3125 13.5 18.6409 13.5 17.8125C13.5 16.9841 12.8284 16.3125 12 16.3125C11.1716 16.3125 10.5 16.9841 10.5 17.8125C10.5 18.6409 11.1716 19.3125 12 19.3125Z" fill="white"/>
</svg>
