<svg viewBox="0 0 24 24" version="1.1" xmlns="http://www.w3.org/2000/svg">
  <path d="M11.3257854,1.67003314 C11.5993768,1.11158984 12.3946532,1.10954674 12.6711103,1.66657694 L15.592,7.553 L22.108216,8.5033982 C22.6862366,8.58768162 22.9379882,9.26070111 22.5959279,9.7016308 L22.5247675,9.78138491 L17.786,14.422 L18.9115306,20.8710454 C19.0129601,21.4521742 18.4407858,21.903055 17.9125486,21.7038628 L17.8199325,21.6618573 L11.999,18.559 L6.18002541,21.6618264 C5.6590753,21.9395495 5.05200098,21.5356332 5.07734774,20.9712706 L5.08853188,20.8701177 L6.222,14.421 L1.47569909,9.78184148 C1.05762434,9.37311418 1.25102082,8.68018693 1.78777186,8.52575708 L1.89237091,8.50331286 L8.443,7.553 L11.3257854,1.67003314 Z" id="路径" fill="currentColor"></path>
</svg>
