<svg viewBox="0 0 24 24" version="1.1" xmlns="http://www.w3.org/2000/svg">
    <g stroke="none" stroke-width="1" fill="none" fill-rule="evenodd">
        <path d="M10.7499987,3.0399 C10.7499987,2.42857126 11.4421258,2.07404628 11.9382358,2.43125449 L17.4382358,6.39135449 C17.8191504,6.66561988 17.8573853,7.2184213 17.5178568,7.54251666 L12.847,11.9999 L17.5178568,16.4574833 C17.8293367,16.7548051 17.8231867,17.2452259 17.5246916,17.5361199 L17.4439919,17.6044594 L11.9439919,21.6443594 C11.4486636,22.0081916 10.7499987,21.6544926 10.7499987,21.0399 L10.7499987,14.0009 L6.51785681,18.0425167 C6.24547165,18.3025207 5.82835781,18.3170329 5.5398907,18.092411 L5.45748334,18.0178568 C5.17147892,17.7182331 5.18251951,17.2434878 5.48214319,16.9574833 L10.676,11.9999 L5.48214319,7.04251666 C5.20975803,6.78251264 5.17587129,6.36652436 5.38684053,6.06792722 L5.45748334,5.98214319 C5.74348776,5.68251951 6.21823313,5.67147892 6.51785681,5.95748334 L10.7499987,9.9979 L10.7499987,3.0399 Z M12.25,13.5019 L12.25,19.5579 L15.835,16.9239 L12.25,13.5019 Z M12.25,4.5039 L12.25,10.4969 L15.829,7.0809 L12.25,4.5039 Z" fill="currentColor" fill-rule="nonzero"></path>
    </g>
</svg>
