<svg viewBox="0 0 24 24" fill="none" xmlns="http://www.w3.org/2000/svg">
<path fill-rule="evenodd" clip-rule="evenodd" d="M7.25 3.60811C6.17823 3.76401 5.41669 4.62468 5.41669 5.58301V16.9683C5.46117 16.9545 5.50619 16.9416 5.5517 16.9296C5.8453 16.8137 6.16522 16.75 6.50002 16.75H7.47164C7.51403 16.7498 7.55682 16.7497 7.60002 16.7497H18.5834V3.83301C18.5834 3.69494 18.4714 3.58301 18.3334 3.58301H12.75V11C12.75 11.2883 12.5847 11.5511 12.3249 11.676C12.065 11.8009 11.7566 11.7658 11.5315 11.5857L10 10.3605L8.46852 11.5857C8.24339 11.7658 7.93496 11.8009 7.67511 11.676C7.41526 11.5511 7.25 11.2883 7.25 11V3.60811ZM3.91669 5.58301V19.333V19.3333C3.91669 20.76 5.07328 21.9167 6.50002 21.9167H18.3334C19.2999 21.9167 20.0834 21.1332 20.0834 20.1667V18.5C20.0834 18.415 20.0773 18.3314 20.0656 18.2497H20.0834V3.83301C20.0834 2.86651 19.2999 2.08301 18.3334 2.08301H7.60002C5.61211 2.08301 3.91669 3.60515 3.91669 5.58301ZM6.27061 18.3153C6.17919 18.328 6.09924 18.3422 6.02929 18.3573C5.66686 18.5325 5.41681 18.9035 5.41669 19.333V19.3333C5.41669 19.9316 5.90172 20.4167 6.50002 20.4167H18.3334C18.4714 20.4167 18.5834 20.3047 18.5834 20.1667V18.5C18.5834 18.3619 18.4714 18.25 18.3334 18.25H7.47666C6.97051 18.2527 6.5779 18.2727 6.27061 18.3153ZM8.75 9.43953V3.75H11.25V9.43953L10.4685 8.81435C10.1946 8.59522 9.80539 8.59522 9.53148 8.81435L8.75 9.43953Z" fill="currentColor"/>
</svg>
