<svg viewBox="0 0 24 24" fill="none" xmlns="http://www.w3.org/2000/svg">
  <path fill-rule="evenodd" clip-rule="evenodd" d="M6.33331 3.74967C6.33331 3.65762 6.40793 3.58301 6.49998 3.58301H15.852C15.8398 3.63671 15.8333 3.6926 15.8333 3.75V20.25C15.8333 20.3072 15.8397 20.3628 15.8518 20.4163H6.49998C6.40792 20.4163 6.33331 20.3417 6.33331 20.2497V17.333H7.41667C7.83088 17.333 8.16667 16.9972 8.16667 16.583C8.16667 16.1688 7.83088 15.833 7.41667 15.833H6.33331V12.75H7.41667C7.83088 12.75 8.16667 12.4142 8.16667 12C8.16667 11.5858 7.83088 11.25 7.41667 11.25H6.33331V8.16699H7.41667C7.83088 8.16699 8.16667 7.83121 8.16667 7.41699C8.16667 7.00278 7.83088 6.66699 7.41667 6.66699H6.33331V3.74967ZM17.3148 20.4163H19.3333C19.4254 20.4163 19.5 20.3417 19.5 20.2497V3.74967C19.5 3.65762 19.4254 3.58301 19.3333 3.58301H17.3147C17.3269 3.63671 17.3333 3.6926 17.3333 3.75V20.25C17.3333 20.3072 17.3269 20.3628 17.3148 20.4163ZM4.83331 20.2497V17.333H3.75C3.33579 17.333 3 16.9972 3 16.583C3 16.1688 3.33579 15.833 3.75 15.833H4.83331V12.75H3.75C3.33579 12.75 3 12.4142 3 12C3 11.5858 3.33579 11.25 3.75 11.25H4.83331V8.16699H3.75C3.33579 8.16699 3 7.83121 3 7.41699C3 7.00278 3.33579 6.66699 3.75 6.66699H4.83331V3.74967C4.83331 2.82921 5.57948 2.08301 6.49998 2.08301H19.3333C20.2538 2.08301 21 2.82921 21 3.74967V20.2497C21 21.1702 20.2538 21.9163 19.3333 21.9163H6.49998C5.57949 21.9163 4.83331 21.1702 4.83331 20.2497Z" fill="currentColor"/>
</svg>
