<svg viewBox="0 0 24 24" fill="none" xmlns="http://www.w3.org/2000/svg">
  <path fill-rule="evenodd" clip-rule="evenodd" d="M5.41669 3.74967C5.41669 3.65763 5.49131 3.58301 5.58335 3.58301H7.58331V20.4163H5.58335C5.4913 20.4163 5.41669 20.3417 5.41669 20.2497V3.74967ZM9.08331 20.4163V3.58301H18.4167C18.5087 3.58301 18.5834 3.65762 18.5834 3.74967V20.2497C18.5834 20.3417 18.5087 20.4163 18.4167 20.4163H9.08331ZM8.33331 21.9163H5.58335C4.66289 21.9163 3.91669 21.1702 3.91669 20.2497V3.74967C3.91669 2.8292 4.66288 2.08301 5.58335 2.08301H8.33331H18.4167C19.3372 2.08301 20.0834 2.82921 20.0834 3.74967V20.2497C20.0834 21.1702 19.3372 21.9163 18.4167 21.9163H8.33331Z" fill="currentColor"/>
  <path fill-rule="evenodd" clip-rule="evenodd" d="M11.25 8.5C11.25 8.08579 11.5858 7.75 12 7.75H15.6667C16.0809 7.75 16.4167 8.08579 16.4167 8.5C16.4167 8.91421 16.0809 9.25 15.6667 9.25H12C11.5858 9.25 11.25 8.91421 11.25 8.5Z" fill="currentColor"/>
  <path fill-rule="evenodd" clip-rule="evenodd" d="M11.25 12.167C11.25 11.7528 11.5858 11.417 12 11.417H15.6667C16.0809 11.417 16.4167 11.7528 16.4167 12.167C16.4167 12.5812 16.0809 12.917 15.6667 12.917H12C11.5858 12.917 11.25 12.5812 11.25 12.167Z" fill="currentColor"/>
  <path fill-rule="evenodd" clip-rule="evenodd" d="M11.25 16C11.25 15.5858 11.5858 15.25 12 15.25H15.6667C16.0809 15.25 16.4167 15.5858 16.4167 16C16.4167 16.4142 16.0809 16.75 15.6667 16.75H12C11.5858 16.75 11.25 16.4142 11.25 16Z" fill="currentColor"/>
</svg>
