<svg viewBox="0 0 24 24" version="1.1" xmlns="http://www.w3.org/2000/svg">
    <g stroke="none" stroke-width="1" fill="none" fill-rule="evenodd">
        <g transform="translate(2.770705, 2.539500)" fill="currentColor">
            <path d="M9.27779741,3.88409537 C12.5073294,3.88409537 15.1254094,6.50217536 15.1254094,9.73170732 C15.1254094,12.9612393 12.5073294,15.5793193 9.27779741,15.5793193 C6.04826545,15.5793193 3.43018546,12.9612393 3.43018546,9.73170732 C3.43018546,6.50217536 6.04826545,3.88409537 9.27779741,3.88409537 Z M9.27779741,5.38409537 C6.87669258,5.38409537 4.93018546,7.33060248 4.93018546,9.73170732 C4.93018546,12.1328122 6.87669258,14.0793193 9.27779741,14.0793193 C11.6789022,14.0793193 13.6254094,12.1328122 13.6254094,9.73170732 C13.6254094,7.33060248 11.6789022,5.38409537 9.27779741,5.38409537 Z" fill-rule="nonzero"></path>
            <path d="M15.6693422,2.0923178 C15.9613955,1.79858713 16.4362673,1.79722739 16.729998,2.08928075 C17.0237287,2.3813341 17.0250884,2.85620589 16.733035,3.14993657 L15.5928846,4.29663511 C15.3008313,4.59036579 14.8259595,4.59172553 14.5322288,4.29967217 C14.2384981,4.00761881 14.2371384,3.53274702 14.5291917,3.23901634 L15.6693422,2.0923178 Z" fill-rule="nonzero"></path>
            <path d="M2.74324072,14.9453982 C3.03529733,14.6516708 3.51016914,14.6503163 3.80389657,14.942373 C4.09762401,15.2344296 4.09897848,15.7093014 3.80692186,16.0030288 L2.85835359,16.9570237 C2.56629697,17.2507512 2.09142517,17.2521056 1.79769774,16.960049 C1.5039703,16.6679924 1.50261583,16.1931206 1.79467245,15.8993931 L2.74324072,14.9453982 Z" fill-rule="nonzero"></path>
            <path d="M9.26829732,16.8597422 C9.68251088,16.8597422 10.0182973,17.1955286 10.0182973,17.6097422 L10.0182973,19 C10.0182973,19.4142136 9.68251088,19.75 9.26829732,19.75 C8.85408375,19.75 8.51829732,19.4142136 8.51829732,19 L8.51829732,17.6097422 C8.51829732,17.1955286 8.85408375,16.8597422 9.26829732,16.8597422 Z" fill-rule="nonzero"></path>
            <path d="M18.53659,8.51828805 C18.9508036,8.51828805 19.28659,8.85407449 19.28659,9.26828805 C19.28659,9.68250161 18.9508036,10.018288 18.53659,10.018288 L16.6829129,10.018288 C16.2686994,10.018288 15.9329129,9.68250161 15.9329129,9.26828805 C15.9329129,8.85407449 16.2686994,8.51828805 16.6829129,8.51828805 L18.53659,8.51828805 Z" fill-rule="nonzero"></path>
            <path d="M15.0091421,14.754345 C15.3020354,14.4614517 15.7769091,14.4614517 16.0698023,14.754345 L17.213243,15.8977857 C17.5061362,16.1906789 17.5061362,16.6655526 17.213243,16.9584458 C16.9203498,17.251339 16.4454761,17.251339 16.1525828,16.9584458 L15.0091421,15.8150051 C14.7162489,15.5221119 14.7162489,15.0472382 15.0091421,14.754345 Z" fill-rule="nonzero"></path>
            <path d="M9.27779741,6.48777244 C7.48621852,6.48777244 6.03386253,7.94012843 6.03386253,9.73170732 C6.03386253,11.5232862 7.48621852,12.9756422 9.27779741,12.9756422"></path>
            <path d="M1.85367707,8.98170732 C2.26789064,8.98170732 2.60367707,9.31749375 2.60367707,9.73170732 C2.60367707,10.1459209 2.26789064,10.4817073 1.85367707,10.4817073 L0,10.4817073 C-0.414213562,10.4817073 -0.75,10.1459209 -0.75,9.73170732 C-0.75,9.31749375 -0.414213562,8.98170732 0,8.98170732 L1.85367707,8.98170732 Z" fill-rule="nonzero"></path>
            <path d="M2.27066812,2.09078837 C2.56355849,1.79789229 3.03843222,1.79788767 3.33132829,2.09077803 L4.28263537,3.04206657 C4.57553144,3.33495693 4.57553607,3.80983067 4.2826457,4.10272674 C3.98975534,4.39562281 3.5148816,4.39562744 3.22198553,4.10273707 L2.27067846,3.15144854 C1.97778238,2.85855817 1.97777776,2.38368444 2.27066812,2.09078837 Z" fill-rule="nonzero"></path>
            <path d="M9.26829732,-0.75 C9.68251088,-0.75 10.0182973,-0.414213562 10.0182973,0 L10.0182973,1.85367707 C10.0182973,2.26789064 9.68251088,2.60367707 9.26829732,2.60367707 C8.85408375,2.60367707 8.51829732,2.26789064 8.51829732,1.85367707 L8.51829732,0 C8.51829732,-0.414213562 8.85408375,-0.75 9.26829732,-0.75 Z" fill-rule="nonzero"></path>
        </g>
    </g>
</svg>
