<svg viewBox="0 0 24 24" version="1.1" xmlns="http://www.w3.org/2000/svg">
  <g transform="translate(12.978635, 12.000000) scale(-1, -1) rotate(270.000000) translate(-12.978635, -12.000000) translate(8.478635, 8.629102)" fill="currentColor" fill-rule="nonzero">
    <path d="M7.9323544,1.56383857 L5.24218524,5.50427562 C4.9307858,5.96039932 4.30858535,6.07772152 3.85246165,5.76632207 C3.74369429,5.69206568 3.65066588,5.59705597 3.57871784,5.48674809 L1.00857754,1.54631103 C0.706858286,1.08372706 0.837264912,0.464136867 1.29984889,0.162417614 C1.4623425,0.0564315598 1.65215679,-1.16718151e-14 1.84615993,-1.19294975e-14 L7.10646938,-1.19294975e-14 C7.65875413,-1.20309506e-14 8.10646938,0.44771525 8.10646938,1 C8.10646938,1.20118165 8.04578837,1.39768566 7.9323544,1.56383857 Z" transform="translate(4.500000, 3.370898) scale(1, -1) translate(-4.500000, -3.370898) "></path>
  </g>
</svg>
