<svg viewBox="0 0 24 24" version="1.1" xmlns="http://www.w3.org/2000/svg">
    <g stroke="none" stroke-width="1" fill="none" fill-rule="evenodd" fill-opacity="0.85">
        <g transform="translate(7.000000, 8.000000)" fill="currentColor" fill-rule="nonzero">
            <path d="M10.7661958,0.229223984 C10.4569742,-0.0790238351 9.95684272,-0.075871512 9.65075918,0.235571275 L3.90005254,6.07592186 L1.35444507,3.4481475 C1.04993055,3.13355239 0.550604744,3.12801449 0.239008469,3.43230059 C-0.0733934927,3.73739609 -0.0804752206,4.23981106 0.22323359,4.55283001 L3.32973978,7.75986833 C3.33130878,7.76225388 3.3344892,7.76225388 3.33605822,7.76463943 C3.33762722,7.76621559 3.33843293,7.76941054 3.34000193,7.77098672 C3.38970128,7.82010359 3.45123179,7.85022124 3.50962429,7.8835338 C3.54036834,7.9001901 3.56483637,7.92792216 3.59638613,7.94057412 C3.69184111,7.98019138 3.79361452,8 3.89458223,8 C3.99478664,8 4.09494864,7.98019138 4.18959792,7.94215029 C4.22034196,7.92945573 4.24404668,7.90410919 4.27322173,7.88826229 C4.33237752,7.85499232 4.39390803,7.82564147 4.44441309,7.77571521 C4.44598209,7.77413905 4.4467878,7.7709441 4.44916251,7.76936792 C4.45073151,7.76698236 4.45310622,7.76621557 4.45548095,7.76459681 L10.7717933,1.35047757 C11.0785553,1.03831063 11.0754173,0.536705033 10.7661958,0.229223984 Z" ></path>
        </g>
    </g>
</svg>
