<svg viewBox="0 0 24 24" xmlns="http://www.w3.org/2000/svg">
    <path fill-rule="evenodd" clip-rule="evenodd" d="M2.32615 7.30621C4.06889 3.7211 7.74586 1.25 12 1.25C17.9371 1.25 22.75 6.06294 22.75 12C22.75 17.9371 17.9371 22.75 12 22.75C6.06294 22.75 1.25 17.9371 1.25 12C1.25 10.3171 1.63672 8.72447 2.32615 7.30621ZM3.20126 9.13803C2.90833 10.0392 2.75 11.0011 2.75 12C2.75 15.8079 5.05097 19.0784 8.33839 20.497L11.8378 17.2475C10.2811 17.2003 8.8949 16.4754 7.96409 15.3579C7.91906 15.3212 7.87761 15.2786 7.84087 15.2304L3.20126 9.13803ZM6.78728 11.3711L3.88399 7.55872C5.45557 4.69289 8.50089 2.75 12 2.75C15.1589 2.75 17.948 4.33349 19.6168 6.75H12C9.31332 6.75 7.09802 8.76809 6.78728 11.3711ZM12 8.25C9.92891 8.25 8.25 9.92891 8.25 12C8.25 14.0711 9.92891 15.75 12 15.75C12.8642 15.75 13.6601 15.4577 14.2942 14.9666L14.3116 14.9504C14.3428 14.9214 14.3758 14.8956 14.4103 14.8729C15.2294 14.185 15.75 13.1533 15.75 12C15.75 9.92891 14.0711 8.25 12 8.25ZM15.2693 16.1081C16.4764 15.1462 17.25 13.6635 17.25 12C17.25 10.531 16.6467 9.20288 15.6743 8.25H20.4583C20.9672 9.3962 21.25 10.6651 21.25 12C21.25 17.1086 17.1086 21.25 12 21.25C11.3033 21.25 10.6247 21.173 9.97202 21.027L15.2693 16.1081Z" fill="currentColor"/>
</svg>
