<svg viewBox="0 0 24 24" fill="none" xmlns="http://www.w3.org/2000/svg">
<path fill-rule="evenodd" clip-rule="evenodd" d="M8.49593 8.09441C7.80543 8.86458 7.46716 9.84499 7.22114 10.706L7.06573 11.25H6.5C6.12048 11.25 5.13734 11.408 4.2725 11.9485C3.44906 12.4631 2.75 13.3053 2.75 14.75C2.75 15.9615 3.29816 16.6695 4.01726 17.1108C4.77926 17.5783 5.7547 17.75 6.5 17.75H17.5C18.3929 17.75 19.3512 17.5239 20.0641 17.0147C20.7424 16.5302 21.25 15.7573 21.25 14.5C21.25 12.7054 20.3276 11.7364 19.3721 11.1791C18.8828 10.8937 18.3866 10.7204 18.0086 10.6189C17.8211 10.5685 17.6664 10.5368 17.5615 10.5181C17.5092 10.5088 17.4695 10.5027 17.4447 10.4991L17.4189 10.4956L17.4165 10.4953L17.416 10.4953L17.4153 10.4952L17.4153 10.4952L17.4149 10.4952L16.9171 10.4398L16.7789 9.95604C16.5613 9.1947 16.1323 8.4007 15.3989 7.79829C14.6743 7.20303 13.5985 6.75 12 6.75C10.1972 6.75 9.15585 7.35834 8.49593 8.09441ZM18.0729 9.0909C17.7561 8.23441 17.2142 7.34819 16.3511 6.63921C15.3257 5.79697 13.9015 5.25 12 5.25C9.80285 5.25 8.34415 6.01666 7.37907 7.09309C6.60843 7.95266 6.1933 8.96678 5.92898 9.79452C5.25742 9.88844 4.33029 10.1435 3.4775 10.6765C2.30094 11.4119 1.25 12.6947 1.25 14.75C1.25 16.5385 2.1185 17.7055 3.23274 18.3892C4.30407 19.0467 5.57863 19.25 6.5 19.25H17.5C18.6071 19.25 19.8988 18.9761 20.9359 18.2353C22.0076 17.4698 22.75 16.2427 22.75 14.5C22.75 12.0446 21.4224 10.6386 20.1279 9.88342C19.4922 9.51258 18.8634 9.29525 18.3976 9.17019C18.279 9.13834 18.17 9.11221 18.0729 9.0909Z" fill="currentColor"/>
</svg>
