<svg viewBox="0 0 24 24" xmlns="http://www.w3.org/2000/svg">
    <path fill-rule="evenodd" clip-rule="evenodd" d="M11.6323 2.34632C11.8606 2.21789 12.1394 2.21789 12.3677 2.34632L20.3677 6.84632C20.6039 6.97916 20.75 7.22904 20.75 7.5V12.2858L20.7501 12.2988L20.75 12.3128V16.5C20.75 16.771 20.6039 17.0208 20.3677 17.1537L12.3677 21.6537C12.1394 21.7821 11.8606 21.7821 11.6323 21.6537L3.6323 17.1537C3.39615 17.0208 3.25 16.771 3.25 16.5V7.5C3.25 7.22904 3.39615 6.97916 3.6323 6.84632L11.6323 2.34632ZM19.25 8.72109V11.8565L15.6385 13.8428C15.3989 13.9746 15.25 14.2264 15.25 14.4999V18.3114L12.75 19.7176V12.4354L19.25 8.72109ZM11.25 12.4354L4.75 8.72108V11.5926C4.80119 11.6108 4.8512 11.6348 4.89911 11.6649L8.39911 13.8649C8.61746 14.0022 8.74998 14.242 8.74998 14.4999V18.3114L11.25 19.7176V12.4354ZM18.4165 7.46977L12 11.1363L5.58355 7.46977L8.03657 6.08994C8.06507 6.11227 8.09553 6.13281 8.1279 6.15131L11.6279 8.15131C11.8585 8.28307 12.1415 8.28307 12.3721 8.15131L15.8721 6.15131C15.9045 6.13282 15.9349 6.11227 15.9634 6.08994L18.4165 7.46977ZM12 6.63631L9.55205 5.23748L12 3.86051L14.448 5.23749L12 6.63631ZM19.25 16.0614L16.75 17.4676V14.9434L19.25 13.5684V16.0614ZM7.24998 14.9143V17.4676L4.75 16.0614V13.3429L7.24998 14.9143Z" fill="currentColor"/>
</svg>
