<svg viewBox="0 0 24 24" version="1.1" xmlns="http://www.w3.org/2000/svg">
    <g stroke="none" stroke-width="1" fill="none" fill-rule="evenodd">
        <g  transform="translate(3.000000, 4.000000)" fill="currentColor" fill-rule="nonzero">
            <path d="M9.29999302,-0.75 C14.8504609,-0.75 19.35,3.74953906 19.35,9.30000698 C19.35,11.9824742 18.4496562,14.558232 16.8263368,16.3184661 L16.6035791,16.5600119 L1.99641822,16.5600119 L1.77366007,16.3184628 C0.150351788,14.5582192 -0.75,11.9824538 -0.75,9.30000698 C-0.75,3.74953675 3.74952742,-0.75 9.29999302,-0.75 Z M9.29999302,0.75 C4.57795524,0.75 0.75,4.57796318 0.75,9.30000698 C0.75,11.4017785 1.38259161,13.4116927 2.50558005,14.8625307 L2.665,15.06 L15.934,15.06 L16.0944242,14.8625308 C17.1583103,13.4880627 17.7820537,11.6118164 17.8447638,9.63103672 L17.85,9.30000698 C17.85,4.57796619 14.0220338,0.75 9.29999302,0.75 Z"></path>
            <path d="M9.29999302,8.08500663 C10.741457,8.08500663 11.9099944,9.25354405 11.9099944,10.695008 C11.9099944,12.136472 10.741457,13.3050094 9.29999302,13.3050094 C7.85852906,13.3050094 6.68999163,12.136472 6.68999163,10.695008 C6.68999163,9.25354405 7.85852906,8.08500663 9.29999302,8.08500663 Z M9.29999302,9.58500663 C8.68695618,9.58500663 8.18999163,10.0819712 8.18999163,10.695008 C8.18999163,11.3080449 8.68695618,11.8050094 9.29999302,11.8050094 C9.91302987,11.8050094 10.4099944,11.3080449 10.4099944,10.695008 C10.4099944,10.0819712 9.91302987,9.58500663 9.29999302,9.58500663 Z" id="椭圆形"></path>
            <path d="M9.29999302,5.29500453 C9.71420659,5.29500453 10.049993,5.63079097 10.049993,6.04500453 L10.049993,8.83500663 C10.049993,9.24922019 9.71420659,9.58500663 9.29999302,9.58500663 C8.88577946,9.58500663 8.54999302,9.24922019 8.54999302,8.83500663 L8.54999302,6.04500453 C8.54999302,5.63079097 8.88577946,5.29500453 9.29999302,5.29500453 Z"></path>
            <path d="M9.29999302,1.57500174 C9.71420659,1.57500174 10.049993,1.91078818 10.049993,2.32500174 L10.049993,3.25500244 C10.049993,3.669216 9.71420659,4.00500244 9.29999302,4.00500244 C8.88577946,4.00500244 8.54999302,3.669216 8.54999302,3.25500244 L8.54999302,2.32500174 C8.54999302,1.91078818 8.88577946,1.57500174 9.29999302,1.57500174 Z"></path>
            <path d="M3.25498849,9.01500732 C3.66920205,9.01500732 4.00498849,9.35079376 4.00498849,9.76500732 C4.00498849,10.1792209 3.66920205,10.5150073 3.25498849,10.5150073 L2.32500174,10.5150073 C1.91078818,10.5150073 1.57500174,10.1792209 1.57500174,9.76500732 C1.57500174,9.35079376 1.91078818,9.01500732 2.32500174,9.01500732 L3.25498849,9.01500732 Z"></path>
            <path d="M3.6546591,4.58467375 C3.94755232,4.29178053 4.42242606,4.29178053 4.71531927,4.58467375 L5.37292277,5.24227724 C5.66581599,5.53517046 5.66581599,6.0100442 5.37292277,6.30293742 C5.08002955,6.59583063 4.60515581,6.59583063 4.3122626,6.30293742 L3.6546591,5.64533392 C3.36176588,5.3524407 3.36176588,4.87756697 3.6546591,4.58467375 Z"></path>
            <path d="M16.2749983,9.01500732 C16.6892118,9.01500732 17.0249983,9.35079376 17.0249983,9.76500732 C17.0249983,10.1792209 16.6892118,10.5150073 16.2749983,10.5150073 L15.3449976,10.5150073 C14.930784,10.5150073 14.5949976,10.1792209 14.5949976,9.76500732 C14.5949976,9.35079376 14.930784,9.01500732 15.3449976,9.01500732 L16.2749983,9.01500732 Z"></path>
            <path d="M14.0772512,4.5845995 C14.370134,4.29169593 14.8450078,4.29167914 15.1379113,4.584562 C15.4308149,4.87744486 15.4308317,5.3523186 15.1379488,5.64522217 L14.4803453,6.30287217 C14.1874625,6.59577574 13.7125888,6.59579253 13.4196852,6.30290966 C13.1267816,6.0100268 13.1267648,5.53515307 13.4196477,5.24224949 L14.0772512,4.5845995 Z"></path>
        </g>
    </g>
</svg>
