<svg viewBox="0 0 24 24" fill="none" xmlns="http://www.w3.org/2000/svg">
<path fill-rule="evenodd" clip-rule="evenodd" d="M10.1667 9.41699C10.5809 9.41699 10.9167 9.75278 10.9167 10.167V16.1253C10.9167 16.5395 10.5809 16.8753 10.1667 16.8753C9.75247 16.8753 9.41669 16.5395 9.41669 16.1253V10.167C9.41669 9.75278 9.75247 9.41699 10.1667 9.41699Z" fill="currentColor"/>
<path fill-rule="evenodd" clip-rule="evenodd" d="M13.8333 9.41699C14.2475 9.41699 14.5833 9.75278 14.5833 10.167V16.1253C14.5833 16.5395 14.2475 16.8753 13.8333 16.8753C13.4191 16.8753 13.0833 16.5395 13.0833 16.1253V10.167C13.0833 9.75278 13.4191 9.41699 13.8333 9.41699Z" fill="currentColor"/>
<path fill-rule="evenodd" clip-rule="evenodd" d="M9.84077 2.08301C9.56687 2.08301 9.31476 2.23232 9.1831 2.47249L7.88915 4.83301H5.125H2.83331C2.4191 4.83301 2.08331 5.16879 2.08331 5.58301C2.08331 5.99722 2.4191 6.33301 2.83331 6.33301H4.375V21.1663C4.375 21.5806 4.71079 21.9163 5.125 21.9163H18.875C19.2892 21.9163 19.625 21.5806 19.625 21.1663V6.33301H21.1666C21.5809 6.33301 21.9166 5.99722 21.9166 5.58301C21.9166 5.16879 21.5809 4.83301 21.1666 4.83301H18.875H16.1151L14.8502 2.4781C14.7195 2.2348 14.4657 2.08301 14.1895 2.08301H9.84077ZM14.4124 4.83301L13.741 3.58301H10.2849L9.59973 4.83301H14.4124ZM8.33331 6.33301H5.875V20.4163H18.125V6.33301H15.6666H8.33331Z" fill="currentColor"/>
</svg>
