<svg viewBox="0 0 24 24" fill="none" xmlns="http://www.w3.org/2000/svg">
  <path fill-rule="evenodd" clip-rule="evenodd" d="M3 3.25C2.0335 3.25 1.25 4.0335 1.25 5V5.78613V8.75V18.8179C1.25 19.7625 1.92095 20.7497 3 20.7497H21C22.0791 20.7497 22.75 19.7624 22.75 18.8179V8.75V5.78613V5C22.75 4.0335 21.9665 3.25 21 3.25H3ZM21.25 6.53613V5C21.25 4.86193 21.1381 4.75 21 4.75H3C2.86193 4.75 2.75 4.86193 2.75 5V6.53613L11.441 10.8816C11.7929 11.0576 12.2071 11.0576 12.559 10.8816L21.25 6.53613ZM2.75 8.21318V8.75V18.8179C2.75 18.9748 2.80412 19.0966 2.86543 19.1691C2.92538 19.2399 2.97571 19.2497 3 19.2497H21C21.0243 19.2497 21.0746 19.2399 21.1346 19.1691C21.1959 19.0966 21.25 18.9748 21.25 18.8179V8.75V8.21318L13.2298 12.2233C12.4556 12.6104 11.5444 12.6104 10.7702 12.2233L2.75 8.21318Z" fill="currentColor"/>
</svg>
