<svg viewBox="0 0 24 24" version="1.1" xmlns="http://www.w3.org/2000/svg">
    <g stroke="none" stroke-width="1" fill="none" fill-rule="evenodd" stroke-linecap="round" stroke-linejoin="round">
        <g transform="translate(2.000000, 4.000000)" stroke="currentColor" stroke-width="1.5">
            <path d="M2.92893,5 C1.11929,6.5 0,8 0,8 C0,8 4.47715,14 10,14 C10.68495,14 11.3538,13.9077 12,13.74605 M8.0159,2.25 C8.6572,2.0908 9.3207,2 10,2 C15.52285,2 20,8 20,8 C20,8 18.8807,9.5 17.07105,11"></path>
            <path d="M8.1571,6.31055 C7.74905,6.75545 7.5,7.3486 7.5,7.9999 C7.5,9.3806 8.6193,10.4999 10,10.4999 C10.68135,10.4999 11.29905,10.2273 11.75,9.78525"></path>
            <line x1="17.5" y1="15.5" x2="2.5" y2="0.5"></line>
        </g>
    </g>
</svg>
