<svg viewBox="0 0 24 24" fill="none" xmlns="http://www.w3.org/2000/svg">
  <path fill-rule="evenodd" clip-rule="evenodd" d="M3.33321 4.15665C3.4618 3.90694 3.71913 3.75 4 3.75H20C20.2802 3.75 20.537 3.90618 20.6659 4.15495C20.7948 4.40373 20.7743 4.70361 20.6127 4.93251L14.75 13.238V21C14.75 21.2539 14.6216 21.4905 14.4087 21.6289C14.1958 21.7672 13.9274 21.7885 13.6954 21.6854L9.6954 19.9076C9.42455 19.7872 9.25 19.5186 9.25 19.2222V13.149L3.38948 4.93562C3.22634 4.70699 3.20463 4.40636 3.33321 4.15665ZM5.4565 5.25L10.6105 12.4733C10.7012 12.6004 10.75 12.7527 10.75 12.9089V18.7348L13.25 19.8459V13C13.25 12.8451 13.298 12.694 13.3873 12.5675L18.5526 5.25H5.4565Z" fill="currentColor"/>
</svg>
