<svg viewBox="0 0 24 24" fill="none" xmlns="http://www.w3.org/2000/svg">
  <path fill-rule="evenodd" clip-rule="evenodd" d="M3.25 4C3.25 3.86193 3.36193 3.75 3.5 3.75H9.14872L11.6487 6.75H20.5C20.6381 6.75 20.75 6.86191 20.75 7V10.25H3.25V4ZM3.25 11.75V20C3.25 20.1381 3.36192 20.25 3.5 20.25H20.5C20.6381 20.25 20.75 20.1381 20.75 20V11.75H3.25ZM3.5 2.25C2.5335 2.25 1.75 3.0335 1.75 4V20C1.75 20.9665 2.53351 21.75 3.5 21.75H20.5C21.4665 21.75 22.25 20.9665 22.25 20V7C22.25 6.03349 21.4665 5.25 20.5 5.25H12.3513L9.85128 2.25H3.5Z" fill="currentColor"/>
</svg>
