<svg viewBox="0 0 24 24" fill="none" xmlns="http://www.w3.org/2000/svg">
  <path fill-rule="evenodd" clip-rule="evenodd" d="M3 2.75C2.0335 2.75 1.25 3.5335 1.25 4.5V20.5C1.25 20.5 1.25 20.5 1.25 20.5C1.25001 20.6667 1.30564 20.8306 1.4109 20.9642C1.55311 21.1447 1.77022 21.25 2.00001 21.25H20C20.3575 21.25 20.6653 20.9977 20.7354 20.6471L22.7354 10.6471C22.7795 10.4268 22.7225 10.1983 22.58 10.0245C22.4376 9.85074 22.2247 9.75 22 9.75H20.5V7.5C20.5 6.53349 19.7165 5.75 18.75 5.75H12.3513L9.85128 2.75H3ZM19 9.75V7.5C19 7.36191 18.8881 7.25 18.75 7.25H11.6487L9.14872 4.25H3C2.86193 4.25 2.75 4.36193 2.75 4.5V14.1773L3.67707 10.3245C3.75816 9.98753 4.05963 9.75 4.40626 9.75H4.5H19ZM2.96058 19.75H19.3852L21.0852 11.25H19.75H5.08558L2.96058 19.75Z" fill="currentColor"/>
</svg>
