<svg viewBox="0 0 24 24" xmlns="http://www.w3.org/2000/svg">
    <path fill-rule="evenodd" clip-rule="evenodd" d="M19.456 5.95555C20.2654 6.97007 20.75 8.18331 20.75 9.49976C20.75 11.3745 19.913 13.2814 18.2623 14.5194C17.5664 15.0413 16.7433 15.4308 15.8572 15.7066C16.1032 16.1929 16.2456 16.6855 16.2456 17.1788V21.5054C16.2456 21.9196 15.9098 22.2554 15.4956 22.2554C15.0814 22.2554 14.7456 21.9196 14.7456 21.5054V17.1788C14.7456 16.842 14.5802 16.3571 14.0816 15.7007C14.0502 15.6606 14.0227 15.6171 13.9997 15.5706C13.9597 15.4897 13.9354 15.4037 13.9263 15.3169C13.8858 14.938 14.1387 14.5829 14.5196 14.5038C15.6476 14.2693 16.6267 13.8711 17.3623 13.3194C18.6072 12.3858 19.25 10.9387 19.25 9.49976C19.25 8.53565 18.8863 7.61578 18.2194 6.81223C18.0959 6.66349 18.0387 6.50201 18.0093 6.38846C17.9784 6.26904 17.9648 6.14963 17.9587 6.04438C17.9465 5.8351 17.9601 5.60146 17.981 5.37818C18.0075 5.09514 18.0539 4.75783 18.0982 4.43626L18.0982 4.43622L18.0982 4.4362C18.1219 4.26463 18.1449 4.09753 18.1639 3.94555C18.1842 3.78366 18.2 3.63826 18.2113 3.50984C18.1317 3.55287 18.0495 3.59771 17.9648 3.64405L17.9168 3.67031C17.6135 3.83616 17.2827 4.01714 16.9569 4.17654C16.6163 4.34326 16.2513 4.50151 15.8967 4.59918C15.5554 4.69321 15.1333 4.7573 14.7234 4.63594C13.8845 4.38755 12.9656 4.24976 12 4.24976C11.1614 4.24976 10.3579 4.35369 9.6114 4.54381C8.73891 4.76601 7.94763 4.44281 7.34437 4.12204C7.10345 3.99394 6.85982 3.84743 6.63727 3.71358L6.63725 3.71357C6.57749 3.67763 6.51926 3.64261 6.463 3.6091C6.32963 3.52967 6.20392 3.45655 6.08352 3.3909C6.0553 3.58349 6.03658 3.83547 6.02754 4.14008C6.01898 4.42899 6.01925 4.69536 6.01952 4.96072C6.01972 5.15786 6.01992 5.35445 6.0165 5.55931C6.01289 5.77509 6.00468 5.99305 5.98252 6.17948C5.97145 6.27262 5.95481 6.37673 5.92692 6.47826C5.90277 6.56615 5.85198 6.72303 5.73493 6.86806C5.0972 7.6582 4.75 8.55762 4.75 9.49976C4.75 10.8937 5.51169 12.3583 6.79314 13.3194C7.6396 13.9542 8.72882 14.3787 9.99422 14.5911C10.4027 14.6597 10.6783 15.0464 10.6097 15.4549C10.5845 15.6051 10.5162 15.7374 10.4197 15.8411C9.90866 16.4054 9.75098 16.8362 9.75098 17.1473V21.5054C9.75098 21.9196 9.41519 22.2554 9.00098 22.2554C8.58676 22.2554 8.25098 21.9196 8.25098 21.5054V17.1473C8.25098 16.6858 8.3796 16.2415 8.60341 15.8168C7.60367 15.5363 6.68261 15.1115 5.89315 14.5194C4.27916 13.3089 3.25 11.4196 3.25 9.49976C3.25 8.21295 3.71316 7.02427 4.49032 6.02366L4.49301 6.00243C4.50577 5.89505 4.51327 5.73985 4.51671 5.53424C4.51909 5.39153 4.51919 5.21181 4.5193 5.01729V5.01729V5.01729C4.51947 4.71813 4.51965 4.38396 4.5282 4.09562C4.54259 3.6104 4.5811 3.04297 4.72888 2.61372C4.80076 2.40494 4.93931 2.10297 5.23153 1.90446C5.58363 1.66526 5.97902 1.68909 6.29609 1.82533C6.62713 1.96757 6.94518 2.15039 7.23059 2.32038C7.29931 2.36131 7.36575 2.40124 7.43051 2.44017L7.43055 2.4402L7.43072 2.44029L7.43072 2.4403L7.43074 2.44031C7.64778 2.57076 7.84607 2.68994 8.04859 2.79763C8.58259 3.08157 8.93969 3.167 9.2412 3.09021C10.11 2.86895 11.0378 2.74976 12 2.74976C13.1077 2.74976 14.17 2.90773 15.1492 3.19766C15.1639 3.202 15.2626 3.21798 15.4984 3.15305C15.7209 3.09175 15.9891 2.98019 16.2976 2.82921C16.5918 2.68525 16.8954 2.5192 17.2069 2.34888L17.2069 2.34887L17.2069 2.34886L17.2451 2.32795C17.5613 2.15509 17.8913 1.97525 18.1933 1.83456C18.453 1.71357 18.8909 1.61422 19.2815 1.91693C19.5941 2.15917 19.6736 2.52186 19.7022 2.70738C19.7663 3.12207 19.7099 3.6721 19.6523 4.13197C19.6277 4.32809 19.6018 4.51552 19.5769 4.69499C19.5361 4.98969 19.4983 5.26294 19.4744 5.518C19.4559 5.71555 19.4507 5.85982 19.456 5.95555Z" fill="currentColor"/>
    <path fill-rule="evenodd" clip-rule="evenodd" d="M4.4243 15.5413C3.92706 14.9495 3.29415 14.7335 2.78099 14.8902C2.44219 14.9937 2.22198 15.32 2.25288 15.6729C2.28379 16.0258 2.55738 16.309 2.909 16.352C3.09731 16.375 3.21173 16.4348 3.2944 16.5279C3.31675 16.5564 3.34034 16.5891 3.36491 16.6266C3.53298 16.9038 3.94628 17.583 4.50835 18.1998C5.04365 18.7872 5.88307 19.5088 6.91257 19.5088H9.00122C9.41544 19.5088 9.75122 19.173 9.75122 18.7588C9.75122 18.3445 9.41544 18.0088 9.00122 18.0088H6.91257C6.56663 18.0088 6.1127 17.7334 5.61704 17.1895C5.15526 16.6827 4.80332 16.1058 4.64138 15.8387M4.64138 15.8387C4.57593 15.7307 4.50335 15.6316 4.4243 15.5413Z" fill="currentColor"/>
</svg>
