<svg viewBox="0 0 24 24" version="1.1" xmlns="http://www.w3.org/2000/svg">
    <g stroke="none" stroke-width="1" fill="none" fill-rule="evenodd">
        <g id="heart">
            <path d="M0,0 L24,0 L24,24 L0,24 L0,0 Z" ></path>
            <path d="M13.5958307,7.32199413 C15.8557148,5.25043327 19.5,6.85356116 19.5,9.91924489 C19.5,10.8536965 19.1287909,11.7498751 18.4680347,12.4106319 L12,18.8786659 L5.53196651,12.4106326 C4.87120968,11.7498758 4.5,10.8536961 4.5,9.9192456 C4.5,6.85356152 8.14428556,5.25043344 10.4041693,7.32199359 L12,8.78483784 L13.5958307,7.32199413 Z M3,9.9192456 C3,11.2515213 3.52924526,12.5292313 4.47130644,13.4712925 L11.7814407,20.7814264 C11.902148,20.902133 12.0978513,20.9021344 12.2185585,20.7814279 L19.5286946,13.4712918 C20.4707565,12.5292306 21,11.2515206 21,9.91924489 C21,5.54840183 15.8042293,3.2627762 12.5822439,6.21626258 L12,6.74998587 L11.4177561,6.21626249 C8.1957711,3.26277593 3,5.54840255 3,9.9192456 Z" fill-opacity="0.85" fill="currentColor"></path>
        </g>
    </g>
</svg>
