<svg viewBox="0 0 24 24" version="1.1" xmlns="http://www.w3.org/2000/svg">
  <path d="M9.779,3.24944695 L9.06,4.74944695 L3.05263158,4.75 C2.87713308,4.75 2.75,4.87077642 2.75,5 L2.75,15.252 L6.7465958,11.4562504 C7.01322166,11.2029559 7.42417366,11.1803529 7.71697035,11.4028784 L9.799,12.985 L10.422,12.294447 L13.7160575,17.0394 L12.749,20.749447 L3.05263158,20.75 C2.065421,20.75 1.25,19.9753581 1.25,19 L1.25,5 C1.25,4.02465358 2.06542482,3.25 3.05263158,3.25 L9.779,3.24944695 Z M20.9473684,3.25 C21.9345872,3.25 22.75,4.02465023 22.75,5 L22.75,19 C22.75,19.9265934 22.0140934,20.6720343 21.0940828,20.744262 L20.9473684,20.75 L14.827,20.749447 L16,17.0394 L11.735,10.839447 L12.495786,9.99758289 C12.7527271,9.71280646 13.1831268,9.66778166 13.4934419,9.8932165 L21.25,15.528 L21.25,5 C21.25,4.87076941 21.1228756,4.75 20.9473684,4.75 L10.881,4.74944695 L11.749,3.24944695 L20.9473684,3.25 Z M7,6.75 C7.35571935,6.75 7.68568671,6.86832691 7.94815375,7.06814887 L7.3914656,8.22842071 L8.37172998,8.93253524 C8.11557141,9.42044751 7.59364665,9.75 7,9.75 C6.15814587,9.75 5.46052632,9.08726142 5.46052632,8.25 C5.46052632,7.41273858 6.15814587,6.75 7,6.75 Z" fill="currentColor" fill-rule="nonzero"></path>
</svg>
