<svg viewBox="0 0 24 24" xmlns="http://www.w3.org/2000/svg">
    <path fill-rule="evenodd" clip-rule="evenodd" d="M1.25 12C1.25 6.06295 6.06295 1.25 12 1.25C17.937 1.25 22.75 6.06295 22.75 12C22.75 17.937 17.937 22.75 12 22.75C6.06295 22.75 1.25 17.937 1.25 12ZM12 2.75C6.89138 2.75 2.75 6.89138 2.75 12C2.75 17.1086 6.89138 21.25 12 21.25C17.1086 21.25 21.25 17.1086 21.25 12C21.25 6.89138 17.1086 2.75 12 2.75Z" fill="currentColor"/>
    <path fill-rule="evenodd" clip-rule="evenodd" d="M14.1939 18.4002C14.9741 16.8398 15.5 14.579 15.5 12C15.5 9.42095 14.9741 7.16022 14.1939 5.59975C13.3688 3.94957 12.5065 3.5 12 3.5C11.4935 3.5 10.6312 3.94957 9.80611 5.59975C9.02587 7.16022 8.5 9.42095 8.5 12C8.5 14.579 9.02587 16.8398 9.80611 18.4002C10.6312 20.0504 11.4935 20.5 12 20.5C12.5065 20.5 13.3688 20.0504 14.1939 18.4002ZM12 22C14.7614 22 17 17.5228 17 12C17 6.47715 14.7614 2 12 2C9.23858 2 7 6.47715 7 12C7 17.5228 9.23858 22 12 22Z" fill="currentColor"/>
    <path fill-rule="evenodd" clip-rule="evenodd" d="M22.5 12.75H2V11.25H22.5V12.75Z" fill="currentColor"/>
</svg>
