<svg viewBox="0 0 24 24" fill="none" xmlns="http://www.w3.org/2000/svg">
  <path fill-rule="evenodd" clip-rule="evenodd" d="M9.21875 3.40915L9.21874 3.40915C7.63584 1.82622 5.06273 1.88117 3.47191 3.47196L3.47191 3.47196C1.8811 5.06275 1.82617 7.63592 3.40909 9.21882L7.21581 13.0256C7.5087 13.3185 7.98358 13.3185 8.27647 13.0256C8.56937 12.7327 8.56937 12.2578 8.27647 11.9649L4.46975 8.15815L4.46974 8.15815C3.49924 7.18767 3.50056 5.56461 4.53256 4.53263C5.56459 3.50061 7.18761 3.49931 8.15808 4.4698L8.15809 4.46981L12.5401 8.85176C12.541 8.85269 12.5419 8.85361 12.5428 8.85454C13.5133 9.82507 13.512 11.4481 12.48 12.4801C12.1871 12.773 12.1871 13.2479 12.48 13.5408C12.7729 13.8337 13.2478 13.8337 13.5406 13.5408C15.1305 11.951 15.1863 9.38008 13.6065 7.79689C13.6055 7.79586 13.6044 7.79483 13.6034 7.7938L9.21875 3.40915Z" fill="currentColor"/>
  <path fill-rule="evenodd" clip-rule="evenodd" d="M14.7312 20.541L14.7312 20.541C16.3141 22.124 18.8872 22.069 20.478 20.4782L20.478 20.4782C22.0689 18.8875 22.1238 16.3143 20.5409 14.7314L16.7341 10.9246C16.4412 10.6317 15.9664 10.6317 15.6735 10.9246C15.3806 11.2175 15.3806 11.6924 15.6735 11.9853L19.4802 15.792L19.4802 15.792C20.4507 16.7625 20.4494 18.3856 19.4174 19.4176C18.3854 20.4496 16.7623 20.4509 15.7919 19.4804L15.7919 19.4804L11.4099 15.0984C11.409 15.0975 11.4081 15.0966 11.4071 15.0957C10.4366 14.1251 10.438 12.5021 11.47 11.4701C11.7629 11.1772 11.7629 10.7023 11.47 10.4094C11.1771 10.1165 10.7022 10.1165 10.4093 10.4094C8.81949 11.9992 8.76365 14.5701 10.3435 16.1533C10.3445 16.1543 10.3455 16.1554 10.3465 16.1564L14.7312 20.541Z" fill="currentColor"/>
</svg>
