<svg viewBox="0 0 24 24" xmlns="http://www.w3.org/2000/svg">
    <path fill-rule="evenodd" clip-rule="evenodd" d="M13.25 3C13.25 2.58579 13.5858 2.25 14 2.25H21C21.4142 2.25 21.75 2.58579 21.75 3V10C21.75 10.4142 21.4142 10.75 21 10.75C20.5858 10.75 20.25 10.4142 20.25 10V3.75H14C13.5858 3.75 13.25 3.41421 13.25 3Z" fill="currentColor"/>
    <path fill-rule="evenodd" clip-rule="evenodd" d="M4.5 3.75C4.08579 3.75 3.75 4.08579 3.75 4.5V19.5C3.75 19.9142 4.08578 20.25 4.5 20.25H19.5C19.9142 20.25 20.25 19.9142 20.25 19.5V14.7368C20.25 14.3226 20.5858 13.9868 21 13.9868C21.4142 13.9868 21.75 14.3226 21.75 14.7368V19.5C21.75 20.7427 20.7427 21.75 19.5 21.75H4.5C3.25737 21.75 2.25 20.7427 2.25 19.5V4.5C2.25 3.25736 3.25736 2.25 4.5 2.25H9C9.41421 2.25 9.75 2.58579 9.75 3C9.75 3.41421 9.41421 3.75 9 3.75H4.5Z" fill="currentColor"/>
    <path fill-rule="evenodd" clip-rule="evenodd" d="M21.0802 2.91987C21.3731 3.21276 21.3731 3.68763 21.0802 3.98053L13.4302 11.6305C13.1373 11.9234 12.6625 11.9234 12.3696 11.6305C12.0767 11.3376 12.0767 10.8628 12.3696 10.5699L20.0196 2.91987C20.3125 2.62697 20.7873 2.62697 21.0802 2.91987Z" fill="currentColor"/>
</svg>
