<svg viewBox="0 0 24 24" xmlns="http://www.w3.org/2000/svg">
    <path fill-rule="evenodd" clip-rule="evenodd" d="M3.75 9.5C3.75 4.94364 7.44364 1.25 12 1.25C16.5564 1.25 20.25 4.94364 20.25 9.5C20.25 11.5926 19.5367 13.5991 18.5747 15.3596C17.4303 17.454 15.902 19.2584 14.6725 20.5313C14.0555 21.1701 13.5085 21.6804 13.1144 22.0321C12.9172 22.2081 12.758 22.3447 12.647 22.4382C12.5914 22.4849 12.548 22.5209 12.5178 22.5456L12.4827 22.5742L12.4729 22.5821L12.4691 22.5852C12.469 22.5853 12.4685 22.5857 12 22C11.5315 22.5857 11.5314 22.5856 11.5312 22.5854L11.5271 22.5821L11.5173 22.5742L11.4822 22.5456C11.452 22.5209 11.4086 22.4849 11.353 22.4382C11.242 22.3447 11.0828 22.2081 10.8856 22.0321C10.4915 21.6804 9.94451 21.1701 9.32754 20.5313C8.09804 19.2584 6.56974 17.454 5.42532 15.3596C4.46331 13.5991 3.75 11.5926 3.75 9.5ZM12 22L11.5312 22.5854C11.8051 22.8046 12.1952 22.8043 12.4691 22.5852L12 22ZM12 21.0155C12.0367 20.9832 12.0753 20.949 12.1156 20.913C12.4869 20.5816 13.0065 20.097 13.5936 19.4892C14.7722 18.269 16.2021 16.5734 17.2584 14.6404C18.148 13.0123 18.75 11.257 18.75 9.5C18.75 5.77206 15.7279 2.75 12 2.75C8.27206 2.75 5.25 5.77206 5.25 9.5C5.25 11.257 5.852 13.0123 6.74162 14.6404C7.79788 16.5734 9.22784 18.269 10.4064 19.4892C10.9935 20.097 11.5131 20.5816 11.8844 20.913C11.9247 20.949 11.9633 20.9832 12 21.0155Z" fill="currentColor"/>
    <path fill-rule="evenodd" clip-rule="evenodd" d="M8.25 9.5C8.25 7.42894 9.92894 5.75 12 5.75C14.0711 5.75 15.75 7.42894 15.75 9.5C15.75 11.5711 14.0711 13.25 12 13.25C9.92894 13.25 8.25 11.5711 8.25 9.5ZM12 7.25C10.7574 7.25 9.75 8.25736 9.75 9.5C9.75 10.7426 10.7574 11.75 12 11.75C13.2426 11.75 14.25 10.7426 14.25 9.5C14.25 8.25736 13.2426 7.25 12 7.25Z" fill="currentColor"/>
</svg>
