<svg viewBox="0 0 24 24" xmlns="http://www.w3.org/2000/svg">
    <path fill-rule="evenodd" clip-rule="evenodd" d="M21.75 4C21.75 3.0335 20.9665 2.25 20 2.25H10.0055C9.03904 2.25 8.25553 3.0335 8.25553 4V6C8.25553 6.41421 8.59132 6.75 9.00553 6.75C9.41975 6.75 9.75553 6.41421 9.75553 6V4C9.75553 3.86193 9.86746 3.75 10.0055 3.75H20C20.1381 3.75 20.25 3.86193 20.25 4V20C20.25 20.1381 20.1381 20.25 20 20.25H10C9.86193 20.25 9.75 20.1381 9.75 20V18C9.75 17.5858 9.41421 17.25 9 17.25C8.58579 17.25 8.25 17.5858 8.25 18V20C8.25 20.9665 9.0335 21.75 10 21.75H20C20.9665 21.75 21.75 20.9665 21.75 20V4Z" fill="currentColor"/>
    <path fill-rule="evenodd" clip-rule="evenodd" d="M11.4697 7.46967C11.1768 7.76256 11.1768 8.23744 11.4697 8.53033L14.9393 12L11.4697 15.4697C11.1768 15.7626 11.1768 16.2374 11.4697 16.5303C11.7626 16.8232 12.2374 16.8232 12.5303 16.5303L16.5303 12.5303C16.8232 12.2374 16.8232 11.7626 16.5303 11.4697L12.5303 7.46967C12.2374 7.17678 11.7626 7.17678 11.4697 7.46967Z" fill="currentColor"/>
    <path fill-rule="evenodd" clip-rule="evenodd" d="M16.25 11.9961C16.25 11.5819 15.9142 11.2461 15.5 11.2461H4C3.58579 11.2461 3.25 11.5819 3.25 11.9961C3.25 12.4103 3.58579 12.7461 4 12.7461H15.5C15.9142 12.7461 16.25 12.4103 16.25 11.9961Z" fill="currentColor"/>
</svg>
