<svg viewBox="0 0 24 24" xmlns="http://www.w3.org/2000/svg">
    <path fill-rule="evenodd" clip-rule="evenodd" d="M2.25 4C2.25 3.0335 3.0335 2.25 4 2.25H13.9945C14.961 2.25 15.7445 3.0335 15.7445 4V6C15.7445 6.41421 15.4087 6.75 14.9945 6.75C14.5803 6.75 14.2445 6.41421 14.2445 6V4C14.2445 3.86193 14.1325 3.75 13.9945 3.75H4C3.86193 3.75 3.75 3.86193 3.75 4V20C3.75 20.1381 3.86193 20.25 4 20.25H14C14.1381 20.25 14.25 20.1381 14.25 20V18C14.25 17.5858 14.5858 17.25 15 17.25C15.4142 17.25 15.75 17.5858 15.75 18V20C15.75 20.9665 14.9665 21.75 14 21.75H4C3.0335 21.75 2.25 20.9665 2.25 20V4Z" fill="currentColor"/>
    <path fill-rule="evenodd" clip-rule="evenodd" d="M16.9393 8.00011L20.9393 12.0001L17.4697 15.4698C17.1768 15.7627 17.1768 16.2376 17.4697 16.5304C17.7626 16.8233 18.2374 16.8233 18.5303 16.5304L22.5303 12.5304C22.8232 12.2375 22.8232 11.7627 22.5303 11.4698L18 6.93945L16.9393 8.00011Z" fill="currentColor"/>
    <path fill-rule="evenodd" clip-rule="evenodd" d="M22.25 11.9961C22.25 11.5819 21.9142 11.2461 21.5 11.2461H10C9.58579 11.2461 9.25 11.5819 9.25 11.9961C9.25 12.4103 9.58579 12.7461 10 12.7461H21.5C21.9142 12.7461 22.25 12.4103 22.25 11.9961Z" fill="currentColor"/>
</svg>
