<svg viewBox="0 0 24 24" fill="none" xmlns="http://www.w3.org/2000/svg">
<path d="M4 20C4 15.8579 7.35786 12.5 11.5 12.5C12.3766 12.5 14 12.5 15.5 14" stroke="black" stroke-width="1.5" stroke-linecap="round"/>
<path fill-rule="evenodd" clip-rule="evenodd" d="M16.5 7C16.5 9.48528 14.4853 11.5 12 11.5C9.51472 11.5 7.5 9.48528 7.5 7C7.5 4.51472 9.51472 2.5 12 2.5C14.4853 2.5 16.5 4.51472 16.5 7ZM14.6021 12.4079C16.6127 11.4387 18 9.38138 18 7C18 3.68629 15.3137 1 12 1C8.68629 1 6 3.68629 6 7C6 9.19272 7.17623 11.1107 8.93215 12.1575C5.63308 13.237 3.25 16.3402 3.25 20C3.25 20.4142 3.58579 20.75 4 20.75C4.41421 20.75 4.75 20.4142 4.75 20C4.75 16.2721 7.77208 13.25 11.5 13.25C12.3429 13.25 13.695 13.2557 14.9697 14.5303C15.2626 14.8232 15.7374 14.8232 16.0303 14.5303C16.3232 14.2374 16.3232 13.7626 16.0303 13.4697C15.5591 12.9984 15.0751 12.6563 14.6021 12.4079Z" fill="black"/>
  <path fill-rule="evenodd" clip-rule="evenodd" d="M17.5 15.8333C17.5 15.097 18.097 14.5 18.8333 14.5C19.5697 14.5 20.1667 15.097 20.1667 15.8333C20.1667 16.5697 19.5697 17.1667 18.8333 17.1667C18.5093 17.1667 18.2123 17.0511 17.9813 16.8589L16.4799 17.7685C16.4931 17.8438 16.5 17.9213 16.5 18.0003C16.5 18.0676 16.495 18.1337 16.4854 18.1982L18.0234 19.1071C18.248 18.9352 18.5287 18.833 18.8333 18.833C19.5697 18.833 20.1667 19.43 20.1667 20.1663C20.1667 20.9027 19.5697 21.4997 18.8333 21.4997C18.097 21.4997 17.5 20.9027 17.5 20.1663C17.5 20.0989 17.505 20.0327 17.5147 19.968L15.9769 19.0593C15.7523 19.2314 15.4714 19.3337 15.1666 19.3337C14.4303 19.3337 13.8333 18.7367 13.8333 18.0003C13.8333 17.2639 14.4303 16.667 15.1666 16.667C15.4591 16.667 15.7295 16.7611 15.9493 16.9208L17.5076 15.9767C17.5026 15.9296 17.5 15.8818 17.5 15.8333ZM18.8333 15.5C18.6492 15.5 18.5 15.6492 18.5 15.8333C18.5 16.0174 18.6492 16.1667 18.8333 16.1667C19.0174 16.1667 19.1667 16.0174 19.1667 15.8333C19.1667 15.6492 19.0174 15.5 18.8333 15.5ZM15.1666 17.667C14.9826 17.667 14.8333 17.8162 14.8333 18.0003C14.8333 18.1844 14.9826 18.3337 15.1666 18.3337C15.3507 18.3337 15.5 18.1844 15.5 18.0003C15.5 17.8162 15.3507 17.667 15.1666 17.667ZM18.5 20.1663C18.5 19.9823 18.6492 19.833 18.8333 19.833C19.0174 19.833 19.1667 19.9823 19.1667 20.1663C19.1667 20.3504 19.0174 20.4997 18.8333 20.4997C18.6492 20.4997 18.5 20.3504 18.5 20.1663Z" fill="currentColor"/>
</svg>
