<svg viewBox="0 0 24 24" fill="none" xmlns="http://www.w3.org/2000/svg">
<path fill-rule="evenodd" clip-rule="evenodd" d="M16.5 8C16.5 10.4853 14.4853 12.5 12 12.5C9.51472 12.5 7.5 10.4853 7.5 8C7.5 5.51472 9.51472 3.5 12 3.5C14.4853 3.5 16.5 5.51472 16.5 8ZM14.9559 13.2226C16.7736 12.1916 18 10.239 18 8C18 4.68629 15.3137 2 12 2C8.68629 2 6 4.68629 6 8C6 10.239 7.22642 12.1916 9.04414 13.2226C7.89725 13.6136 6.88727 14.2384 6.06282 15.0628C4.58595 16.5397 3.75 18.6119 3.75 21C3.75 21.4142 4.08579 21.75 4.5 21.75C4.91421 21.75 5.25 21.4142 5.25 21C5.25 18.9698 5.95491 17.292 7.12348 16.1235C8.29204 14.9549 9.96984 14.25 12 14.25C14.0302 14.25 15.708 14.9549 16.8765 16.1235C18.0451 17.292 18.75 18.9698 18.75 21C18.75 21.4142 19.0858 21.75 19.5 21.75C19.9142 21.75 20.25 21.4142 20.25 21C20.25 18.6119 19.414 16.5397 17.9372 15.0628C17.1127 14.2384 16.1028 13.6136 14.9559 13.2226Z" fill="currentColor"/>
</svg>
