<svg viewBox="0 0 24 24" fill="none" xmlns="http://www.w3.org/2000/svg">
<path d="M4 20C4 15.8579 7.35786 12.5 11.5 12.5C12.3766 12.5 14 12.5 15.5 14" stroke="currentColor" stroke-width="1.5" stroke-linecap="round"/>
<path fill-rule="evenodd" clip-rule="evenodd" d="M16.5 7C16.5 9.48528 14.4853 11.5 12 11.5C9.51472 11.5 7.5 9.48528 7.5 7C7.5 4.51472 9.51472 2.5 12 2.5C14.4853 2.5 16.5 4.51472 16.5 7ZM14.6021 12.4079C16.6127 11.4387 18 9.38138 18 7C18 3.68629 15.3137 1 12 1C8.68629 1 6 3.68629 6 7C6 9.19272 7.17623 11.1107 8.93215 12.1575C5.63308 13.237 3.25 16.3402 3.25 20C3.25 20.4142 3.58579 20.75 4 20.75C4.41421 20.75 4.75 20.4142 4.75 20C4.75 16.2721 7.77208 13.25 11.5 13.25C12.3429 13.25 13.695 13.2557 14.9697 14.5303C15.2626 14.8232 15.7374 14.8232 16.0303 14.5303C16.3232 14.2374 16.3232 13.7626 16.0303 13.4697C15.5591 12.9984 15.0751 12.6563 14.6021 12.4079Z" fill="currentColor"/>
<path fill-rule="evenodd" clip-rule="evenodd" d="M17.0594 14.5196C17.2924 14.4525 17.54 14.5622 17.6467 14.7799C17.7184 14.926 17.8557 15.0115 18 15.0115C18.1443 15.0115 18.2816 14.926 18.3533 14.7799C18.46 14.5622 18.7076 14.4525 18.9406 14.5196C19.492 14.6784 19.9866 14.9725 20.39 15.3628C20.544 15.5118 20.5859 15.7425 20.4941 15.9362C20.4663 15.995 20.45 16.0623 20.45 16.1357C20.45 16.3955 20.6475 16.572 20.85 16.572L20.8552 16.572C21.0784 16.5686 21.2768 16.7137 21.3413 16.9274C21.4446 17.2695 21.5 17.6327 21.5 18.0083C21.5 18.2562 21.4759 18.4988 21.4297 18.7335C21.3799 18.987 21.1452 19.1608 20.8883 19.1345C20.8757 19.1332 20.8629 19.1325 20.85 19.1325C20.6476 19.1325 20.45 19.3091 20.45 19.5689C20.45 19.6819 20.4888 19.7817 20.5502 19.8574C20.7068 20.0505 20.6977 20.3293 20.5289 20.5118C20.1174 20.9567 19.5953 21.2949 19.0054 21.4777C18.8785 21.517 18.7412 21.5042 18.6238 21.4421C18.5064 21.3801 18.4185 21.2739 18.3795 21.1469C18.3228 20.9624 18.1646 20.8491 18 20.8491C17.8354 20.8491 17.6772 20.9624 17.6205 21.1469C17.5815 21.2739 17.4936 21.3801 17.3762 21.4421C17.2588 21.5042 17.1215 21.517 16.9946 21.4777C16.4047 21.2949 15.8826 20.9567 15.4711 20.5118C15.3023 20.3293 15.2932 20.0505 15.4498 19.8574C15.5112 19.7817 15.55 19.6819 15.55 19.5689C15.55 19.3091 15.3525 19.1325 15.15 19.1325C15.1371 19.1325 15.1243 19.1332 15.1117 19.1345C14.8548 19.1608 14.6201 18.987 14.5703 18.7335C14.5241 18.4988 14.5 18.2562 14.5 18.0083C14.5 17.6327 14.5554 17.2695 14.6587 16.9274C14.7232 16.7137 14.9216 16.5686 15.1448 16.572L15.15 16.572C15.3525 16.572 15.55 16.3955 15.55 16.1357C15.55 16.0623 15.5337 15.995 15.5059 15.9362C15.4141 15.7425 15.456 15.5118 15.61 15.3628C16.0134 14.9725 16.508 14.6784 17.0594 14.5196ZM16.5293 15.8886C16.5429 15.9691 16.55 16.0517 16.55 16.1357C16.55 16.7754 16.1349 17.3384 15.5442 17.5148C15.5152 17.6743 15.5 17.8393 15.5 18.0083C15.5 18.0656 15.5017 18.1224 15.5052 18.1787C16.1165 18.3416 16.55 18.9151 16.55 19.5689C16.55 19.7458 16.5186 19.9162 16.4609 20.0738C16.6026 20.1901 16.7563 20.2905 16.9194 20.3726C17.1733 20.0563 17.5589 19.8491 18 19.8491C18.4411 19.8491 18.8267 20.0563 19.0806 20.3726C19.2437 20.2905 19.3974 20.1901 19.5391 20.0738C19.4814 19.9162 19.45 19.7459 19.45 19.5689C19.45 18.9151 19.8835 18.3416 20.4948 18.1787C20.4983 18.1224 20.5 18.0656 20.5 18.0083C20.5 17.8393 20.4848 17.6743 20.4558 17.5148C19.8651 17.3384 19.45 16.7754 19.45 16.1357C19.45 16.0517 19.4571 15.9691 19.4707 15.8886C19.3197 15.7732 19.1562 15.6753 18.9831 15.5976C18.7328 15.851 18.3874 16.0115 18 16.0115C17.6126 16.0115 17.2672 15.851 17.0169 15.5976C16.8438 15.6753 16.6803 15.7732 16.5293 15.8886Z" fill="currentColor"/>
<path fill-rule="evenodd" clip-rule="evenodd" d="M16.5 18C16.5 17.1716 17.1716 16.5 18 16.5C18.8284 16.5 19.5 17.1716 19.5 18C19.5 18.8284 18.8284 19.5 18 19.5C17.1716 19.5 16.5 18.8284 16.5 18ZM18 17.5C17.7239 17.5 17.5 17.7239 17.5 18C17.5 18.2761 17.7239 18.5 18 18.5C18.2761 18.5 18.5 18.2761 18.5 18C18.5 17.7239 18.2761 17.5 18 17.5Z" fill="currentColor"/>
</svg>
