<svg viewBox="0 0 24 24" fill="none" xmlns="http://www.w3.org/2000/svg">
  <path
    d="M9.42771 20C7.91972 19.5329 6.57741 18.6657 5.51454 17.5167C5.91105 17.0278 6.15 16.3961 6.15 15.7064C6.15 14.155 4.94117 12.8974 3.45 12.8974C3.3598 12.8974 3.27063 12.902 3.1827 12.911C3.06291 12.3017 3 11.6709 3 11.0248C3 10.046 3.14435 9.10234 3.41211 8.2155C3.42471 8.21569 3.43735 8.21578 3.45 8.21578C4.94117 8.21578 6.15 6.95815 6.15 5.4068C6.15 4.96144 6.05037 4.54033 5.87307 4.16618C6.91387 3.15934 8.18422 2.40584 9.59344 2C10.04 2.9106 10.95 3.53417 12 3.53417C13.05 3.53417 13.96 2.9106 14.4066 2C15.8158 2.40584 17.0861 3.15934 18.1269 4.16618C17.9496 4.54033 17.85 4.96144 17.85 5.4068C17.85 6.95815 19.0588 8.21578 20.55 8.21578C20.5626 8.21578 20.5753 8.21569 20.5879 8.2155C20.8556 9.10234 21 10.046 21 11.0248C21 11.6709 20.9371 12.3017 20.8173 12.911C20.7294 12.902 20.6402 12.8974 20.55 12.8974C19.0588 12.8974 17.85 14.155 17.85 15.7064C17.85 16.3961 18.089 17.0278 18.4854 17.5167C17.4226 18.6657 16.508 19.5329 15 20C14 19 13.2042 18.0472 12 18.0472C10.7958 18.0472 9.77574 18.8674 9.42771 20Z"
    stroke="currentColor" stroke-width="1.5" stroke-linejoin="round"/>
  <path
    d="M12 14.5C13.933 14.5 15.5 12.933 15.5 11C15.5 9.067 13.933 7.5 12 7.5C10.067 7.5 8.5 9.067 8.5 11C8.5 12.933 10.067 14.5 12 14.5Z"
    stroke="currentColor" stroke-width="1.5"/>
  <circle cx="16" cy="16" r="6" fill="white"/>
  <path
    d="M16 20.375C18.4162 20.375 20.375 18.4162 20.375 16C20.375 13.5838 18.4162 11.625 16 11.625C13.5838 11.625 11.625 13.5838 11.625 16C11.625 18.4162 13.5838 20.375 16 20.375ZM13.8125 16.1291L14.2541 15.6875L15.375 16.8081L17.7453 14.4375L18.1875 14.8797L15.375 17.6919L13.8125 16.1291Z"
    fill="currentColor"/>
</svg>
