<svg viewBox="0 0 24 24" fill="none" xmlns="http://www.w3.org/2000/svg">
<path d="M9.88283 20.1128C9.54761 20.5528 8.99561 20.8722 8.4895 20.649C7.62638 20.2683 6.8322 19.7514 6.13185 19.1242C5.7614 18.7925 5.76697 18.2338 5.94927 17.7712C6.07866 17.4428 6.15 17.0833 6.15 16.7064C6.15 15.155 4.94117 13.8974 3.45 13.8974V13.8974C3.29829 13.8974 3.15982 13.7972 3.13469 13.6476C3.04616 13.1205 3 12.5783 3 12.0248C3 11.0594 3.14044 10.1281 3.40123 9.25179C3.40763 9.23029 3.42757 9.21578 3.45 9.21578V9.21578C4.94117 9.21578 6.15 7.95815 6.15 6.4068C6.15 6.21473 6.13147 6.02718 6.09617 5.84595C6.0142 5.4251 6.07706 4.96117 6.40761 4.68808C7.12443 4.09588 7.93006 3.61498 8.80035 3.27051C9.25124 3.09204 9.73611 3.33374 10.0679 3.68734C10.5582 4.20981 11.2427 4.53416 12 4.53416C12.7573 4.53416 13.4418 4.20981 13.9321 3.68734C14.2639 3.33374 14.7488 3.09204 15.1996 3.27051C16.0699 3.61498 16.8756 4.09588 17.5924 4.68808C17.9229 4.96117 17.9858 5.4251 17.9038 5.84595C17.8685 6.02718 17.85 6.21473 17.85 6.4068C17.85 7.95815 19.0588 9.21578 20.55 9.21578V9.21578C20.5724 9.21578 20.5924 9.23029 20.5988 9.25178C20.8595 10.1281 21 11.0594 21 12.0248C21 12.5783 20.9538 13.1205 20.8653 13.6476C20.8402 13.7972 20.7017 13.8974 20.55 13.8974V13.8974C19.0588 13.8974 17.85 15.155 17.85 16.7064C17.85 17.0833 17.9213 17.4428 18.0507 17.7712C18.233 18.2338 18.2386 18.7925 17.8682 19.1242C17.1678 19.7514 16.3736 20.2683 15.5105 20.649C15.0044 20.8722 14.4524 20.5528 14.1172 20.1128C13.6226 19.4636 12.8581 19.0472 12 19.0472C11.1419 19.0472 10.3774 19.4636 9.88283 20.1128Z" stroke="currentColor" stroke-width="1.5" stroke-linejoin="round"/>
<path d="M12 15C13.6569 15 15 13.6569 15 12C15 10.3431 13.6569 9 12 9C10.3431 9 9 10.3431 9 12C9 13.6569 10.3431 15 12 15Z" stroke="currentColor" stroke-width="1.5" stroke-linejoin="round"/>
</svg>
