<svg viewBox="0 0 24 24" xmlns="http://www.w3.org/2000/svg">
    <path fill-rule="evenodd" clip-rule="evenodd" d="M14.25 5.5C14.25 3.70507 15.7051 2.25 17.5 2.25C19.2949 2.25 20.75 3.70507 20.75 5.5C20.75 7.29491 19.2949 8.75 17.5 8.75C16.5219 8.75 15.6448 8.31795 15.049 7.6343L9.57658 10.9498C9.689 11.2793 9.75 11.6325 9.75 12C9.75 12.3356 9.69915 12.6592 9.60473 12.9637L15.1589 16.2458C15.7501 15.6319 16.5804 15.25 17.5 15.25C19.2949 15.25 20.75 16.7051 20.75 18.5C20.75 20.2949 19.2949 21.75 17.5 21.75C15.7051 21.75 14.25 20.2949 14.25 18.5C14.25 18.1646 14.3008 17.8411 14.3951 17.5368L8.84076 14.2546C8.24958 14.8682 7.41937 15.25 6.5 15.25C4.70509 15.25 3.25 13.7949 3.25 12C3.25 10.2051 4.70509 8.75 6.5 8.75C7.3866 8.75 8.19028 9.10502 8.77664 9.68065L14.3502 6.30385C14.2848 6.04677 14.25 5.77744 14.25 5.5ZM17.5 3.75C16.5335 3.75 15.75 4.53351 15.75 5.5C15.75 6.46649 16.5335 7.25 17.5 7.25C18.4665 7.25 19.25 6.46649 19.25 5.5C19.25 4.53351 18.4665 3.75 17.5 3.75ZM6.5 10.25C5.53351 10.25 4.75 11.0335 4.75 12C4.75 12.9665 5.53351 13.75 6.5 13.75C7.46649 13.75 8.25 12.9665 8.25 12C8.25 11.0335 7.46649 10.25 6.5 10.25ZM15.75 18.5C15.75 17.5335 16.5335 16.75 17.5 16.75C18.4665 16.75 19.25 17.5335 19.25 18.5C19.25 19.4665 18.4665 20.25 17.5 20.25C16.5335 20.25 15.75 19.4665 15.75 18.5Z" fill="currentColor"/>
</svg>
