<svg viewBox="0 0 24 24" fill="none" xmlns="http://www.w3.org/2000/svg">
  <path d="M20.4946 14.2558L21.025 14.7861L21.0265 14.7845L20.4946 14.2558ZM14.2645 20.486L13.7341 19.9556L13.7338 19.9559L14.2645 20.486ZM11.8054 20.486L12.336 19.9559L12.3354 19.9553L11.8054 20.486ZM4 12.6892H3.25V13.0001L3.46997 13.2199L4 12.6892ZM4 4V3.25C3.58579 3.25 3.25 3.58579 3.25 4H4ZM12.6892 4L13.2196 3.46967L12.9999 3.25H12.6892V4ZM20.4946 11.8054L21.0266 11.2766L21.025 11.2751L20.4946 11.8054ZM19.9643 13.7254L13.7341 19.9556L14.7948 21.0163L21.025 14.7861L19.9643 13.7254ZM13.7338 19.9559C13.5486 20.1414 13.2972 20.2456 13.0349 20.2456V21.7456C13.6952 21.7456 14.3285 21.4832 14.7951 21.016L13.7338 19.9559ZM13.0349 20.2456C12.7727 20.2456 12.5213 20.1414 12.336 19.9559L11.2748 21.016C11.7415 21.4832 12.3746 21.7456 13.0349 21.7456V20.2456ZM12.3354 19.9553L4.53003 12.1586L3.46997 13.2199L11.2754 21.0166L12.3354 19.9553ZM4.75 12.6892V4H3.25V12.6892H4.75ZM4 4.75H12.6892V3.25H4V4.75ZM12.1589 4.53033L19.9643 12.3357L21.025 11.2751L13.2196 3.46967L12.1589 4.53033ZM19.9627 12.3342C20.3458 12.7194 20.3458 13.3417 19.9627 13.727L21.0265 14.7845C21.9911 13.8142 21.9911 12.247 21.0265 11.2766L19.9627 12.3342Z" fill="currentColor"/>
  <path d="M11.25 9.5C11.25 10.4665 10.4665 11.25 9.5 11.25C8.53351 11.25 7.75 10.4665 7.75 9.5C7.75 8.53351 8.53351 7.75 9.5 7.75C10.4665 7.75 11.25 8.53351 11.25 9.5Z" stroke="currentColor" stroke-width="1.5"/>
</svg>
