<svg viewBox="0 0 24 24" version="1.1" xmlns="http://www.w3.org/2000/svg">
    <g stroke="none" stroke-width="1" fill="currentColor" fill-rule="evenodd" fill-opacity="0.85">
        <path d="M12.7143049,17.0000192 C12.7143049,17.3950122 12.3950314,17.7143241 12,17.7143241 C11.6049686,17.7143241 11.2856951,17.3950506 11.2856951,17.0000192 L11.2856951,10.5714286 C11.2856951,10.1764356 11.6049686,9.85712366 12,9.85712366 C12.394993,9.85712366 12.7143049,10.1763972 12.7143049,10.5714286 L12.7143049,17.0000192 Z M12,2 C17.5142742,2 22,6.4857258 22,12 C22,17.5142742 17.5142742,22 12,22 C6.4857258,22 2,17.5142742 2,12 C2,6.4857258 6.4857258,2 12,2 Z M12,3.43498377 C7.2771325,3.43498377 3.43498377,7.27713248 3.43498377,12 C3.43498377,16.722138 7.27713248,20.5650162 12,20.5650162 C16.722138,20.5650162 20.5650162,16.7221764 20.5650162,12 C20.5650162,7.2771325 16.722138,3.43498377 12,3.43498377 Z M12,6.28571429 C12.5914336,6.28571429 13.0714382,6.76498935 13.0714382,7.35715246 C13.0714382,7.94785647 12.5914336,8.42859063 12,8.42859063 C11.4085664,8.42859063 10.9285618,7.94785647 10.9285618,7.35715246 C10.9285618,6.76502775 11.4085664,6.28571429 12,6.28571429 Z"  fill-rule="nonzero"></path>
    </g>
</svg>
