<svg viewBox="0 0 24 24" fill="none" xmlns="http://www.w3.org/2000/svg">
  <path fill-rule="evenodd" clip-rule="evenodd" d="M15.4277 10.5048C15.7206 10.2119 16.1955 10.2119 16.4884 10.5048L20.3775 14.3939C22.0534 16.0698 22.3392 18.7635 20.4717 20.5455C18.6472 22.2865 16.0458 22.1272 14.345 20.4264L10.4559 16.5373C10.163 16.2444 10.163 15.7696 10.4559 15.4767C10.7488 15.1838 11.2236 15.1838 11.5165 15.4767L15.4056 19.3658C16.5687 20.5288 18.2395 20.6022 19.4362 19.4603C20.5899 18.3594 20.5047 16.6425 19.3168 15.4546L15.4277 11.5655C15.1348 11.2726 15.1348 10.7977 15.4277 10.5048Z" fill="currentColor"/>
  <path fill-rule="evenodd" clip-rule="evenodd" d="M13.5 8.544C13.7929 8.2511 13.7929 7.77623 13.5 7.48334L9.6109 3.59424C7.93498 1.91832 5.24134 1.63249 3.45932 3.5C1.71828 5.32456 1.87761 7.92597 3.57839 9.62675L7.46749 13.5158C7.76038 13.8087 8.23526 13.8087 8.52815 13.5158C8.82104 13.223 8.82104 12.7481 8.52815 12.4552L4.63905 8.56609C3.47603 7.40307 3.40266 5.73217 4.54452 4.53553C5.6454 3.38184 7.36236 3.46701 8.55024 4.65489L12.4393 8.544C12.7322 8.83689 13.2071 8.83689 13.5 8.544Z" fill="currentColor"/>
  <path fill-rule="evenodd" clip-rule="evenodd" d="M8.14432 8.06342C8.43722 7.77053 8.91209 7.77053 9.20498 8.06342L11.1495 10.008C11.4424 10.3009 11.4424 10.7757 11.1495 11.0686C10.8566 11.3615 10.3818 11.3615 10.0889 11.0686L8.14432 9.12408C7.85143 8.83119 7.85143 8.35631 8.14432 8.06342Z" fill="currentColor"/>
  <path fill-rule="evenodd" clip-rule="evenodd" d="M12.6817 12.6005C12.9746 12.3076 13.4494 12.3076 13.7423 12.6005L15.6869 14.5451C15.9798 14.838 15.9798 15.3128 15.6869 15.6057C15.394 15.8986 14.9191 15.8986 14.6262 15.6057L12.6817 13.6612C12.3888 13.3683 12.3888 12.8934 12.6817 12.6005Z" fill="currentColor"/>
</svg>
