<svg viewBox="0 0 24 24" fill="none" xmlns="http://www.w3.org/2000/svg">
  <path fill-rule="evenodd" clip-rule="evenodd" d="M2.83331 4.83301C2.4191 4.83301 2.08331 5.16879 2.08331 5.58301V18.4163C2.08331 18.8306 2.4191 19.1663 2.83331 19.1663H17.5C17.9142 19.1663 18.25 18.8306 18.25 18.4163V15.104L20.683 17.1569C20.9061 17.3451 21.218 17.3868 21.4827 17.2638C21.7474 17.1409 21.9167 16.8755 21.9167 16.5837V7.417C21.9167 7.12516 21.7474 6.85982 21.4827 6.73684C21.218 6.61386 20.9061 6.65558 20.683 6.84378L18.25 8.89665V5.58301C18.25 5.16879 17.9142 4.83301 17.5 4.83301H2.83331ZM3.58331 17.6663V6.33301H16.75V17.6663H3.58331ZM18.25 13.1414V10.8592L20.4167 9.03112V14.9696L18.25 13.1414Z" fill="currentColor"/>
  <path fill-rule="evenodd" clip-rule="evenodd" d="M8.21554 9.22789C8.48071 8.90968 8.95364 8.86669 9.27184 9.13186L12.0218 11.4235C12.1928 11.566 12.2917 11.7771 12.2917 11.9997C12.2917 12.2223 12.1928 12.4334 12.0218 12.5759L9.27184 14.8675C8.95364 15.1327 8.48071 15.0897 8.21554 14.7715C7.95037 14.4533 7.99336 13.9804 8.31157 13.7152L10.3702 11.9997L8.31157 10.2842C7.99336 10.019 7.95037 9.5461 8.21554 9.22789Z" fill="currentColor"/>
</svg>
