<svg viewBox="0 0 24 24" version="1.1" xmlns="http://www.w3.org/2000/svg">
    <g stroke="none" stroke-width="1" fill="none" fill-rule="evenodd">
        <g transform="translate(2.539000, 5.000000)" fill="currentColor">
            <path d="M0.393815777,2.44520993 C6.04470005,-2.09020931 14.2272014,-1.77286045 19.5158981,3.23913588 C19.8165507,3.52405853 19.8293023,3.99876103 19.5443796,4.29941358 C19.2594569,4.60006613 18.7847545,4.61281774 18.4841019,4.32789509 C13.740789,-0.167251475 6.399953,-0.451957323 1.33273491,3.61500943 C1.05183783,3.84047473 0.779376816,4.07819888 0.515900799,4.32789253 C0.215249659,4.61281667 -0.2594529,4.60006742 -0.544377044,4.29941628 C-0.829301187,3.99876514 -0.816551938,3.52406258 -0.515900799,3.23913844 C-0.222580089,2.96116127 0.0808620028,2.69640591 0.393815777,2.44520993 Z" fill-rule="nonzero"></path>
            <path d="M2.31966991,6.4991929 C6.28526313,2.53359968 12.7147369,2.53359968 16.6803301,6.4991929 C16.9732233,6.79208612 16.9732233,7.26695985 16.6803301,7.55985307 C16.3874369,7.85274629 15.9125631,7.85274629 15.6196699,7.55985307 C12.2398631,4.18004629 6.76013687,4.18004629 3.38033009,7.55985307 C3.08743687,7.85274629 2.61256313,7.85274629 2.31966991,7.55985307 C2.0267767,7.26695985 2.0267767,6.79208612 2.31966991,6.4991929 Z" fill-rule="nonzero"></path>
            <path d="M5.16966991,9.5936754 C7.56125563,7.20208968 11.4387444,7.20208968 13.8303301,9.5936754 C14.1232233,9.88656862 14.1232233,10.3614424 13.8303301,10.6543356 C13.5374369,10.9472288 13.0625631,10.9472288 12.7696699,10.6543356 C10.9638706,8.84853629 8.03612937,8.84853629 6.23033009,10.6543356 C5.93743687,10.9472288 5.46256313,10.9472288 5.16966991,10.6543356 C4.8767767,10.3614424 4.8767767,9.88656862 5.16966991,9.5936754 Z" fill-rule="nonzero"></path>
            <path d="M9.5,13.774998 C10.1558325,13.774998 10.6875,13.2433305 10.6875,12.587498 C10.6875,11.9316655 10.1558325,11.399998 9.5,11.399998 C8.8441675,11.399998 8.3125,11.9316655 8.3125,12.587498 C8.3125,13.2433305 8.8441675,13.774998 9.5,13.774998 Z"></path>
        </g>
    </g>
</svg>
